<?xml version="1.0" encoding="iso-8859-1"?>
<!-- Generator: Adobe Illustrator 19.0.0, SVG Export Plug-In . SVG Version: 6.00 Build 0)  -->
<svg version="1.1" id="Capa_1" xmlns="http://www.w3.org/2000/svg" xmlns:xlink="http://www.w3.org/1999/xlink" x="0px" y="0px"
	 viewBox="0 0 511.998 511.998">
<path fill="#FF8840" d="M441.389,434.466c13.078-9.078,24.988-54.612,28.451-70.396
	c5.136-23.411-11.786-43.829-11.796-66.868c-0.01-22.999,10.267-44.296,12.79-66.936l0.545-9.517
	c0-57.237-23.483-110.969-66.125-151.297C363.013,29.502,306.951,7.5,247.397,7.5S131.781,29.502,89.539,69.452
	C60.58,96.84,38.79,132.633,28.853,171.306c-4.902,19.077-7.082,39.32-4.893,58.96c2.523,22.64,12.8,43.937,12.79,66.936
	c-0.01,23.039-16.931,43.458-11.796,66.868c3.463,15.785,15.373,61.318,28.451,70.396H441.389z"/>
<path fill="#E6742E" d="M54.954,364.07c-5.136-23.411,11.786-43.829,11.796-66.868c0.01-23-10.267-44.296-12.79-66.936
	c-2.189-19.64-0.008-39.883,4.893-58.96C68.79,132.633,90.58,96.84,119.539,69.452c38.676-36.578,88.939-58.096,142.858-61.471
	c-4.972-0.312-9.972-0.481-15-0.481c-59.554,0-115.616,22.001-157.858,61.952C60.58,96.84,38.79,132.633,28.853,171.306
	c-4.902,19.077-7.082,39.32-4.893,58.96c2.523,22.64,12.8,43.937,12.79,66.936c-0.01,23.039-16.931,43.458-11.796,66.868
	c3.463,15.785,15.373,61.318,28.451,70.396h30C70.327,425.388,58.417,379.855,54.954,364.07z"/>
<path fill="#FBC4AC" d="M367.698,369.317H127.096c0,0-70.893,28.616-70.893,135.183h72.591l118.604-14.627L366,504.5h72.591
	C438.591,397.933,367.698,369.317,367.698,369.317z"/>
<g>
	<circle fill="#E3B098" cx="445.259" cy="220.75" r="43.629"/>
	<path fill="#E3B098" d="M247.397,432.878c52.667,0,102.578-17.302,142.54-49.048
		c-12.371-10.526-22.239-14.513-22.239-14.513H127.096c0,0-9.848,3.979-22.201,14.48c12.208,9.68,25.47,18.142,39.531,25.125
		C175.979,424.595,211.586,432.878,247.397,432.878z"/>
</g>
<path fill="#FBC4AC" d="M438.701,172.787c-19.824-70.909-98.246-108.571-164.739-76.952
	c-11.499,5.468-22.278,12.777-31.982,22.22c-38.221,37.198-32.683,86.573-51.108,132.33c-17.18,42.665-56.319,79.29-104.372,79.29
	c35.903,47.35,94.587,78.204,160.897,78.204c109.277,0,197.863-83.781,197.863-187.129
	C445.26,204.17,442.98,188.094,438.701,172.787z"/>
<path fill="#F98084" d="M360.159,268.303h-26.37c-4.143,0-7.5-3.358-7.5-7.5s3.357-7.5,7.5-7.5h26.37
	c4.143,0,7.5,3.358,7.5,7.5S364.301,268.303,360.159,268.303z"/>
<path fill="#DC5A64" d="M366,504.5v-70.034c0,0-51.237-19.121-118.604,34.511c-67.367-53.632-118.604-34.511-118.604-34.511
	V504.5H366z"/>
<circle fill="#FFCE1C" cx="451.429" cy="264.04" r="15.987"/>
<path d="M346.978,239.845c4.142,0,7.5-3.358,7.5-7.5v-19.361c0-4.142-3.358-7.5-7.5-7.5s-7.5,3.358-7.5,7.5v19.361
	C339.478,236.487,342.835,239.845,346.978,239.845z"/>
<path d="M247.401,267.209c9.105,0,17.655-3.807,23.457-10.444c2.726-3.119,2.408-7.856-0.711-10.583s-7.857-2.408-10.583,0.71
	c-2.953,3.378-7.386,5.316-12.163,5.316s-9.21-1.938-12.163-5.316c-2.726-3.119-7.464-3.437-10.583-0.711s-3.437,7.464-0.711,10.583
	C229.746,263.403,238.295,267.209,247.401,267.209z"/>
<path d="M496.393,220.749c0-17.207-8.553-32.444-21.621-41.716c-8.702-43.672-30.904-83.39-64.36-115.03
	C366.772,22.73,308.881,0,247.401,0c-60.25,0-117.298,21.951-160.636,61.809c-3.049,2.804-3.247,7.549-0.443,10.598
	c2.804,3.049,7.548,3.247,10.597,0.443C137.481,35.545,190.923,15,247.401,15c57.63,0,111.861,21.273,152.704,59.901
	c28.384,26.844,48.075,59.879,57.483,96.221c-3.066-0.76-6.252-1.237-9.407-1.414c-0.86-0.049-1.726-0.075-2.598-0.081
	c-15.8-54.571-65.75-92.588-121.914-92.588c-18.343,0-36.15,4.044-52.924,12.021c-12.616,5.999-24.052,13.945-33.992,23.619
	c-26.551,25.839-33.302,57.301-39.83,87.727c-3.36,15.661-6.835,31.855-13.004,47.176c-8.322,20.666-21.946,39.351-38.364,52.611
	c-17.803,14.379-38.223,21.98-59.051,21.98c-2.848,0-5.45,1.613-6.717,4.164c-1.267,2.551-0.98,5.599,0.741,7.868
	c9.491,12.517,20.578,23.944,32.895,34.005c-3.321,2.095-7.218,4.814-11.436,8.253c-12.259,9.997-22.559,22.321-30.555,35.952
	c-0.052,0.088-5.363,9.767-7.307,14.05c-6.87-1.47-12.776-6.095-15.735-12.604c-7.371-16.211-13.592-39.937-16.106-51.401
	c-2.454-11.184,1.245-22.167,5.161-33.793c3.345-9.933,6.804-20.204,6.809-31.465c0.006-14.084-3.513-27.332-6.915-40.144
	c-2.519-9.483-4.897-18.439-5.921-27.626c-1.958-17.566-0.375-36.496,4.704-56.263c7.279-28.332,21.403-55.75,40.845-79.291
	c2.638-3.194,2.187-7.921-1.007-10.559c-3.193-2.638-7.921-2.187-10.559,1.007c-20.835,25.229-35.984,54.659-43.808,85.11
	c-5.532,21.533-7.243,42.277-5.083,61.657c1.147,10.296,3.783,20.219,6.331,29.815c3.3,12.427,6.418,24.165,6.413,36.288
	c-0.003,8.806-2.928,17.49-6.024,26.683c-4.396,13.053-8.942,26.55-5.597,41.795c0.728,3.318,7.389,33.031,17.103,54.395
	c4.602,10.125,13.462,17.508,23.901,20.464c-5.93,17.364-9.93,38.501-9.93,63.965c0,4.142,3.358,7.5,7.5,7.5h72.591h237.207h72.591
	c4.142,0,7.5-3.358,7.5-7.5c0-25.467-4.001-46.604-9.93-63.964c10.438-2.956,19.299-10.34,23.901-20.464
	c9.713-21.364,16.375-51.077,17.103-54.394c3.345-15.246-1.2-28.744-5.597-41.797c-3.096-9.193-6.02-17.876-6.024-26.682
	c-0.002-4.834,0.488-9.869,1.529-15.66c4.807-4.304,7.839-10.551,7.839-17.496c0-0.542-0.025-1.077-0.061-1.609
	C488.259,252.904,496.393,237.39,496.393,220.749z M452.872,255.681c3.975,0.689,7.043,4.329,7.043,8.362
	c0,2.97-1.536,5.584-3.853,7.101c-3.975,2.604-9.451,1.316-11.896-2.73c-0.011-0.019-0.019-0.038-0.029-0.056
	c-2.102-3.537-1.16-8.424,2.052-10.975C448.055,255.902,450.528,255.274,452.872,255.681z M101.455,336.063
	c18.991-2.836,37.258-11.06,53.526-24.2c18.374-14.841,33.592-35.679,42.853-58.678c6.651-16.516,10.263-33.351,13.756-49.632
	c6.339-29.544,12.327-57.45,35.626-80.125c8.759-8.524,18.843-15.53,29.971-20.821c14.747-7.013,30.385-10.568,46.483-10.568
	c49.854,0,94.188,34.035,107.812,82.766c5.37,19.205,7.311,39.343,5.757,59.222c-0.317,4.056-0.776,8.103-1.379,12.128
	c-0.018,0.118-0.038,0.236-0.056,0.355c-1.857,1.652-3.423,3.571-4.656,5.68c-2.089,3.572-3.206,7.714-3.206,11.852
	c0,3.122,0.601,6.094,1.688,8.812c-11.431,35.592-34.896,67.6-66.334,90.403c-29.756,21.583-65.529,34.158-102.162,36.653
	c-6.516,0.444-12.992,0.378-19.515,0.378C187.365,398.722,136.24,375.177,101.455,336.063z M136.297,440.233
	c0.069-1.307,15.398-1.58,16.6-1.58c33.195,0,64.388,15.945,89.833,36.192c2.694,2.144,6.643,2.148,9.343,0
	c11.742-9.348,22.941-16.388,33.407-21.649c22.047-11.083,48.371-18.038,73.025-12.963V497H136.297
	C136.297,497,136.297,440.485,136.297,440.233z M373.504,497v-62.534c0-3.058-2.014-5.956-4.877-7.026
	c-0.414-0.155-10.333-3.786-26.722-3.786c-28.597,0-56.28,10.6-80.142,25.821c-4.697,2.996-9.489,6.321-14.363,10.009
	c-4.874-3.688-9.666-7.013-14.363-10.009c-26.856-17.135-58.951-28.662-91.173-25.252c-5.252,0.556-10.716,1.367-15.689,3.216
	c-2.886,1.073-4.879,3.948-4.879,7.027V497h-57.47c1.359-41.631,15.977-84.567,49.961-110.737c0.047-0.036,0.095-0.073,0.142-0.109
	c5.177-3.973,9.595-6.608,12.464-8.15c1.734,1.203,5.336,3.568,5.378,3.595c32.329,20.962,69.691,32.513,109.035,33.674
	c2.197,0.065,4.395,0.106,6.593,0.106c36.751,0,73.641-9.534,105.632-27.676c5.273-2.99,10.406-6.236,15.387-9.691
	c2.876,1.546,7.297,4.185,12.472,8.157c0.05,0.039,0.101,0.078,0.151,0.117c17.151,13.321,30.317,31.745,38.388,51.848
	c6.965,17.341,10.83,37.01,11.543,58.867h-57.468V497z M462.518,362.463c-2.514,11.463-8.736,35.188-16.106,51.4
	c-2.958,6.507-8.863,11.132-15.731,12.603c-2.895-6.396-6.065-12.18-9.356-17.422c-9.65-15.371-22.256-29.015-37.362-39.148
	c-0.845-0.567-1.698-1.123-2.559-1.667c27.146-22.218,47.947-51.086,59.81-83.007c2.032,0.972,4.23,1.661,6.548,2.019
	c1.099,0.175,2.192,0.27,3.305,0.285c-0.351,3.34-0.519,6.53-0.518,9.678c0.005,11.261,3.464,21.531,6.809,31.463
	C461.273,340.295,464.972,351.278,462.518,362.463z M466.646,246.173c-3.566-3.039-8.039-4.986-12.701-5.482
	c-0.173-0.018-2.233-0.204-2.242-0.134c0.005-0.044,0.008-0.088,0.012-0.132c1.433-13.47,1.383-27.101-0.141-40.561
	c-0.57-5.031-1.337-10.056-2.314-15.025c16.273,1.804,29.651,14.887,31.815,31.105c1.599,11.975-3.094,24.335-12.326,32.248
	C468.748,248.193,466.705,246.224,466.646,246.173z"/>

</svg>
