<svg version="1.1"
          id="Delete"
          xmlns="http://www.w3.org/2000/svg" x="0px" y="0px"
          viewBox="0 0 389.6 389.6"
          width="1.3em" height="1.3em">
          <g>
            <path fill="#0099ff"
              d="M340.4,80.4H49.2v266.8c0,23.6,19.2,42.4,42.4,42.4h206c23.6,0,42.4-19.2,42.4-42.4V80.4H340.4z"/>
            <g>
              <path fill="#0099ff"
                d="M346.8,40H280c-1.2-10.4-6-20-13.2-26.8l0,0l0,0l0,0C258.4,4.8,247.2,0,234.8,0h-80
                c-12.4,0-24,5.2-32,13.2l0,0c-7.2,7.2-12,16.4-13.2,26.8H42.8c-11.2,0-20,9.2-20,20l0,0c0,11.2,9.2,20,20,20h304
                c11.2,0,20-9.2,20-20l0,0C366.8,49.2,357.6,40,346.8,40z M136.8,27.2L136.8,27.2c4.8-4.8,10.8-7.6,18-7.6h80
                c7.2,0,13.2,2.8,18,7.6l0,0c3.6,3.6,6,8,6.8,12.8H130C130.8,35.2,133.2,30.8,136.8,27.2L136.8,27.2z"/>
              <path fill="#BAE3FF"
                d="M258,146.8v176.4c0,11.2,9.2,20,20,20l0,0c11.2,0,20-9.2,20-20V146.8c0-11.2-9.2-20-20-20l0,0
                C267.2,126.8,258,136,258,146.8"/>
              <path fill="#BAE3FF"
                d="M174.8,146.8v176.4c0,11.2,9.2,20,20,20l0,0c11.2,0,20-9.2,20-20V146.8c0-11.2-9.2-20-20-20l0,0
                C183.6,126.8,174.8,136,174.8,146.8"/>
              <path fill="#BAE3FF"
                d="M91.2,146.8v176.4c0,11.2,9.2,20,20,20l0,0c11.2,0,20-9.2,20-20V146.8c0-11.2-9.2-20-20-20l0,0
                C100.4,126.8,91.2,136,91.2,146.8"/>
            </g>
          </g>
        </svg>