<?xml version="1.0" encoding="iso-8859-1"?>
<!-- Generator: Adobe Illustrator 19.0.0, SVG Export Plug-In . SVG Version: 6.00 Build 0)  -->
<svg version="1.1" id="Capa_1" xmlns="http://www.w3.org/2000/svg" xmlns:xlink="http://www.w3.org/1999/xlink" x="0px" y="0px"
	 viewBox="0 0 511.999 511.999" >
<path fill="#3A484A" d="M471.98,275.021c11.242,57.803-24.196,56.76-21.069,103.664s-30.227,61.928-30.227,61.928H91.315
	c0,0-33.354-15.025-30.227-61.928c3.127-46.904-32.311-45.861-21.069-103.664v-51.936h427.568L471.98,275.021z"/>
<path fill="#313D40" d="M161.089,378.685c3.127-46.904-32.311-45.861-21.069-103.664v-51.936h-100v51.936
	c-11.242,57.803,24.196,56.76,21.069,103.664c-3.127,46.904,30.227,61.928,30.227,61.928h100
	C191.315,440.613,157.962,425.588,161.089,378.685z"/>
<g>
	<path fill="#00A1E0" d="M398.201,378.352c-11.644-8.603-20.278-11.828-20.278-11.828h-18.859l-38.77,60.926l38.77,77.05
		h42.176l7.5-6.197l7.5,6.197h43.02C459.259,421.684,422.285,396.15,398.201,378.352z"/>
	<path fill="#00A1E0" d="M152.936,366.524h-18.859c0,0-8.634,3.225-20.278,11.828C89.714,396.15,52.74,421.684,52.74,504.5
		h43.02l7.5-5.965l7.5,5.965h42.176l38.77-77.05L152.936,366.524z"/>
</g>
<path fill="#008FC7" d="M136.798,378.352c7.359-5.437,13.508-8.721,17.043-10.406l-0.905-1.422h-18.859
	c0,0-8.634,3.225-20.278,11.828C89.714,396.15,52.74,421.684,52.74,504.5h23C75.74,421.684,112.714,396.15,136.798,378.352z"/>
<rect x="152.939" y="366.52" fill="#EFEDEE;" width="206.13" height="137.98"/>
<path fill="#E3B098" d="M320.293,402.648c0,0-13.607,49.975-64.294,65.623c-50.687-15.648-64.294-65.623-64.294-65.623
	H320.293z"/>
<path fill="#3A484A" d="M29.543,223.085c0-57.861,23.74-112.179,66.848-152.948C139.102,29.745,195.783,7.5,255.999,7.5
	s116.9,22.245,159.609,62.637c43.107,40.769,66.848,95.087,66.848,152.948L29.543,223.085L29.543,223.085z"/>
<path fill="#313D40" d="M156.393,70.137C191.926,36.532,237.135,15.502,286,9.379C276.131,8.143,266.117,7.5,255.999,7.5
	C195.783,7.5,139.1,29.745,96.391,70.137c-43.108,40.769-66.849,95.087-66.849,152.948h60
	C89.543,165.224,113.283,110.906,156.393,70.137z"/>
<circle fill="#C99C87" cx="456.399" cy="233.67" r="44.19"/>
<path fill="#E3B098" d="M217.009,94.238c0,0-48.508,70.352-156.007,84.999c-3.525,14.075-5.401,28.753-5.401,43.848
	c0,104.673,89.722,189.528,200.399,189.528s200.399-84.854,200.399-189.528c0-15.094-1.876-29.773-5.401-43.848
	C305.265,160.514,217.009,94.238,217.009,94.238z"/>
<path fill="#C99C87" d="M94.601,201.667c0-10.12,0.771-20.068,2.231-29.807c-11.125,3.102-23.056,5.636-35.83,7.376
	c-0.858,3.425-1.614,6.886-2.273,10.379c-0.98-0.082-2.006-0.138-3.128-0.138c-24.405,0-44.188,19.784-44.188,44.188
	s19.784,44.188,44.188,44.188c3.339,0,6.011-0.383,8.168-1.084c24.48,78.526,101.272,135.844,192.23,135.844
	c10.207,0,20.234-0.727,30.031-2.119C177.822,395.97,94.601,308.018,94.601,201.667z"/>
<g>
	<path fill="#FBE1D5" d="M221.673,201.339c-9.52-6.726-27.216-14.455-58.273-14.455c-31.058,0-48.754,7.729-58.273,14.455
		c-6.529,4.613-10.069,12.394-9.409,20.361c1.915,23.11,12.342,75.998,67.682,75.998s65.768-52.888,67.682-75.998
		C231.743,213.733,228.202,205.952,221.673,201.339z"/>
	<path fill="#FBE1D5" d="M290.325,201.339c9.52-6.726,27.216-14.455,58.273-14.455c31.058,0,48.754,7.729,58.273,14.455
		c6.529,4.613,10.069,12.394,9.409,20.361c-1.915,23.11-12.342,75.998-67.682,75.998S282.83,244.81,280.916,221.7
		C280.256,213.733,283.797,205.952,290.325,201.339z"/>
</g>
<g>
	<circle fill="#EFEDEE" cx="50.299" cy="278.01" r="19.39"/>
	<circle fill="#EFEDEE" cx="461.699" cy="278.01" r="19.39"/>
</g>
<g>
	<path fill="#F98084" d="M82.645,104.544c-7.55,45.18-22.61,65.056-53.434,34.232S18.263,92.892,63.443,85.342
		L82.645,104.544z"/>
	<path fill="#F98084" d="M103.839,83.351c45.18-7.55,65.056-22.61,34.232-53.434S92.188,18.969,84.636,64.149L103.839,83.351
		z"/>
</g>
<path fill="#DC5A64" d="M73.384,69.325l-4.764,4.764c-6.98,6.98-6.98,18.297,0,25.278l0,0c6.98,6.98,18.297,6.98,25.278,0
	l4.764-4.764c6.98-6.98,6.98-18.297,0-25.278l0,0C91.682,62.345,80.364,62.345,73.384,69.325z"/>
<path d="M163.399,217.576c-4.142,0-7.5,3.358-7.5,7.5v18.005c0,4.142,3.358,7.5,7.5,7.5s7.5-3.358,7.5-7.5v-18.005
	C170.899,220.934,167.542,217.576,163.399,217.576z"/>
<path d="M348.598,250.581c4.142,0,7.5-3.358,7.5-7.5v-18.005c0-4.142-3.358-7.5-7.5-7.5s-7.5,3.358-7.5,7.5v18.005
	C341.098,247.223,344.456,250.581,348.598,250.581z"/>
<path d="M236.303,208.148c-2.14-5.131-5.663-9.657-10.302-12.935c-10.221-7.221-29.377-15.829-62.602-15.829
	c-33.224,0-52.38,8.608-62.601,15.829c-8.625,6.094-13.437,16.48-12.556,27.105c1.112,13.423,4.594,32.982,14.867,49.933
	c13.062,21.553,33.91,32.945,60.29,32.945s47.228-11.392,60.29-32.945c9.572-15.794,13.246-33.848,14.602-47.098
	c2.989-2.653,9.774-7.762,17.707-7.762c7.921,0,14.702,5.099,17.708,7.765c1.357,13.249,5.031,31.302,14.602,47.095
	c13.062,21.553,33.91,32.945,60.29,32.945s47.228-11.392,60.29-32.945c10.273-16.951,13.755-36.51,14.867-49.933
	c0.88-10.625-3.931-21.011-12.556-27.105c-10.221-7.221-29.377-15.829-62.602-15.829c-33.224,0-52.38,8.608-62.601,15.829
	c-4.64,3.278-8.162,7.804-10.302,12.935c-5.186-3.055-11.955-5.757-19.696-5.757C248.257,202.391,241.49,205.093,236.303,208.148z
	 M210.861,264.477c-10.343,17.066-26.312,25.72-47.462,25.72s-37.119-8.653-47.462-25.72c-9.223-15.218-11.944-33.722-12.746-43.397
	c-0.444-5.356,1.956-10.573,6.262-13.616c8.445-5.967,24.66-13.08,53.945-13.08c29.286,0,45.5,7.113,53.946,13.08
	c4.307,3.042,6.706,8.26,6.262,13.616C222.807,230.755,220.085,249.259,210.861,264.477z M294.653,207.464
	c8.445-5.967,24.659-13.08,53.945-13.08s45.5,7.113,53.946,13.08c4.307,3.042,6.706,8.26,6.262,13.616
	c-0.801,9.675-3.523,28.179-12.746,43.397c-10.343,17.066-26.312,25.72-47.462,25.72s-37.119-8.653-47.462-25.72
	c-9.223-15.218-11.944-33.722-12.746-43.397C287.947,215.724,290.346,210.507,294.653,207.464z"/>
<path d="M278.647,270.928c-3.119-2.726-7.856-2.408-10.583,0.711c-2.929,3.351-7.326,5.272-12.065,5.272
	c-4.739,0-9.137-1.922-12.065-5.272c-2.725-3.119-7.464-3.438-10.583-0.711c-3.119,2.726-3.438,7.464-0.711,10.583
	c5.777,6.61,14.291,10.401,23.359,10.401s17.582-3.791,23.359-10.4C282.084,278.392,281.766,273.654,278.647,270.928z"/>
<path d="M487.794,192.646c-6.92-48.79-30.045-92.976-67.032-127.959c-3.429-3.243-7.136-6.527-11.017-9.762
	c-3.181-2.651-7.911-2.222-10.563,0.96c-2.652,3.182-2.222,7.912,0.96,10.563c3.642,3.035,7.111,6.108,10.313,9.136
	c31.777,30.055,52.584,67.351,60.699,108.535c-2.413-0.718-4.899-1.254-7.39-1.61c-1.463-0.212-2.918-0.363-4.393-0.447
	c-0.342-1.533-0.702-3.05-1.076-4.545c-0.753-3.011-3.246-5.323-6.344-5.719c-74.093-9.52-132.78-31.717-168.965-48.662
	c-21.142-9.902-42.684-20.881-61.474-34.895c-3.37-2.513-8.273-1.725-10.671,1.729c-0.007,0.011-0.061,0.087-0.161,0.226
	c-9.962,13.776-22.908,25.268-36.417,35.468c-22.538,17.018-60.658,38.836-114.274,46.142c-3.038,0.414-5.518,2.635-6.263,5.609
	c-0.009,0.034-0.758,3.115-1.1,4.648c-0.243,0.014-0.483,0.045-0.726,0.063c-3.727,0.263-7.458,0.924-11.041,1.99
	c1.624-8.164,3.767-16.241,6.413-24.168c0.068,0.021,0.135,0.033,0.203,0.053c3.57,1.053,7.436,1.456,11.126,0.851
	c18.857-2.907,26.533-28.395,30.546-50.001c2.791-0.909,5.406-2.304,7.744-4.141c3.307-2.598,6.515-5.804,9.114-9.115
	c1.837-2.339,3.231-4.954,4.14-7.745c0.045-0.138,1.461-0.284,1.608-0.312c12.709-2.48,26.48-5.752,37.141-13.478
	c6.068-4.397,10.853-10.895,11.466-18.587c0.491-5.941-1.361-12.237-5.594-18.981C185.785,23.099,220.595,15,255.999,15
	c43.117,0,84.738,11.822,120.364,34.187c3.509,2.202,8.138,1.143,10.34-2.364c2.202-3.508,1.144-8.137-2.364-10.34
	C346.32,12.616,301.941,0,255.999,0c-38.812,0-76.978,9.157-110.781,26.517c-0.604-0.633-1.204-1.264-1.844-1.904
	c-11.481-11.481-21.641-17.062-31.062-17.062c-21.533,0-29.917,27.345-34.179,50.291c-3.748,1.221-7.184,3.311-10.052,6.179
	l-4.765,4.765c-2.918,2.918-4.969,6.378-6.165,10.058c-29.359,5.52-45.062,14.249-49.245,27.312
	c-3.578,11.174,1.656,23.579,16.001,37.923c3.434,3.434,6.748,6.329,9.96,8.715c-4.499,12.967-7.723,26.33-9.648,39.839
	c-12.333,9.455-20.307,24.327-20.307,41.033c0,16.05,7.305,30.853,19.759,40.615c-0.17,1.219-0.264,2.462-0.264,3.728
	c0,6.91,2.621,13.217,6.919,17.985c0.051,19.819,6.773,31.771,12.751,42.371c6.326,11.215,11.789,20.9,10.527,39.82
	c-1.11,16.646,1.897,31.396,8.915,43.936c-10.13,19.252-17.279,45.396-17.279,82.378c0,4.142,3.358,7.5,7.5,7.5h406.519
	c4.142,0,7.5-3.358,7.5-7.5c0-36.983-7.15-63.126-17.28-82.379c7.017-12.539,10.024-27.289,8.915-43.936
	c-1.262-18.919,4.202-28.605,10.527-39.82c5.979-10.599,12.701-22.552,12.751-42.371c4.298-4.768,6.919-11.075,6.919-17.985
	c0-1.265-0.094-2.509-0.264-3.728c12.454-9.762,19.759-24.565,19.759-40.615C508.086,216.968,500.119,202.102,487.794,192.646z
	 M112.313,22.551c3.552,0,9.985,2.198,20.456,12.668c3.214,3.214,6.579,6.347,9.163,10.115c2.428,3.54,4.646,8.597,3.052,12.925
	c-1.258,3.415-6.454,9.242-25.97,14.285c-0.788,0.204-8.602,2.365-8.717,1.988c-0.848-2.782-2.175-5.398-3.938-7.749
	c7.906-9.318,15.11-16.18,21.028-19.99c3.483-2.243,4.488-6.884,2.246-10.366c-2.243-3.483-6.884-4.487-10.366-2.246
	c-7.424,4.78-15.843,12.76-25.073,23.754c-0.247-0.084-0.493-0.169-0.742-0.245C98.06,34.952,104.672,22.551,112.313,22.551z
	 M78.688,74.628c1.726-1.726,3.954-2.767,6.354-2.99c0.06-0.003,0.119,0,0.178-0.004c6.175-0.455,11.612,4.893,11.134,11.133
	c-0.187,2.433-1.272,4.804-2.996,6.533c-3.309,3.309-6.358,7.404-11.396,7.758c-0.014,0.001-0.027,0.004-0.041,0.005
	c-3.387,0.215-6.824-1.268-8.87-4.004c-3.077-4.114-2.786-10.006,0.873-13.666L78.688,74.628z M22.191,110.731
	c1.265-3.95,7.577-11.073,34.809-16.58c0.012,0.04,0.17,0.533,0.24,0.739c-11,9.233-18.984,17.656-23.765,25.082
	c-2.242,3.483-1.237,8.124,2.246,10.366c3.393,2.185,8.138,1.215,10.366-2.246c3.81-5.917,10.672-13.121,19.99-21.027
	c0.219,0.164,0.442,0.32,0.665,0.476c2.135,1.497,4.567,2.695,7.085,3.462c-0.617,3.042-1.294,6.073-2.088,9.074
	c-3.456,13.195-7.26,19.708-10.335,22.905c-8.717,8.856-20.717-3.333-26.891-9.508C24.937,123.897,20.562,115.821,22.191,110.731z
	 M463.19,266.222c5.696,0.781,10.401,5.949,10.401,11.788c0,6.461-5.426,11.89-11.889,11.89c-6.394,0-11.889-5.495-11.889-11.89
	C449.812,271.17,456.374,265.287,463.19,266.222z M281.739,139.077c34.554,15.729,86.583,34.913,151.207,45.141
	c3.934,0.623,7.905,1.218,11.931,1.772c0.353,1.613,0.685,3.246,0.996,4.885c3.471,18.31,3.931,37.199,1.422,55.663
	c-0.439,3.234-1.012,6.635-1.656,9.911c-0.699,0.521-1.362,1.079-2.009,1.667c-7.733,7.019-10.726,18.607-7.401,28.5
	c0.083,0.247,0.169,0.492,0.26,0.736c-11.797,29.484-31.592,55.689-57.474,75.943c-34.797,27.229-78.913,41.818-123.015,41.818
	c-44.131,0-88.213-14.59-123.033-41.831c-0.012-0.009-0.024-0.018-0.035-0.027c-0.097-0.075-0.189-0.157-0.29-0.228
	c-25.697-20.194-45.379-46.307-57.13-75.676c-0.094-0.236,0.442-1.298,0.525-1.574c2.416-8.044,0.783-17.118-4.22-23.854
	c-1.54-2.074-3.383-3.928-5.455-5.472c-0.112-0.567-0.231-1.132-0.337-1.7c-3.899-20.953-3.891-42.86,0.106-63.899
	c0.314-1.653,0.648-3.3,1.006-4.927c42.038-6.521,82.77-22.918,116.718-48.705c12.655-9.613,24.557-20.48,34.701-32.74
	c5.189,3.495,13.649,8.91,25.189,15.388C254.34,125.816,279.878,138.228,281.739,139.077z M229.758,418.555
	c0.125,0.015,0.25,0.03,0.374,0.045c17.156,2.014,34.579,2.02,51.736,0c0.122-0.014,0.244-0.029,0.367-0.044
	c8.553-1.017,16.996-2.525,25.29-4.526c-7.307,14.422-22.753,36.623-51.527,46.36c-28.777-9.738-44.222-31.94-51.528-46.36
	C212.764,416.03,221.206,417.539,229.758,418.555z M59.642,285.199c-2.2,2.822-5.611,4.703-9.348,4.7
	c-6.473-0.004-11.887-5.425-11.887-11.89c0-6.41,5.477-11.89,11.892-11.89C59.891,266.12,65.522,277.659,59.642,285.199z
	 M18.912,233.667c0-12.943,6.741-24.336,16.892-30.869c3.606-2.321,7.776-4.064,12.036-4.987c0.668-0.144,1.341-0.266,2.018-0.373
	c-2.021,14.738-2.29,29.687-0.803,44.488c0.309,3.072,0.686,6.14,1.146,9.193c-0.042-0.178-2.743,0.154-2.865,0.167
	c-0.012,0.001-0.023,0.003-0.035,0.004c-6.769,0.754-12.785,4.03-17.088,8.865C23.037,253.308,18.912,243.834,18.912,233.667z
	 M68.571,379.184c1.56-23.387-5.872-36.563-12.429-48.187c-4.65-8.244-8.817-15.633-10.277-26.467
	c0.012,0.002,0.024,0.002,0.035,0.004c5.914,0.985,12.094-0.08,17.345-2.969c0.511-0.281,1.076-0.602,1.587-0.93
	c11.611,25.742,28.762,48.649,50.48,67.527c-2.548,1.668-16.317,11.815-20.576,15.309c-7.582,6.219-15.495,13.721-22.714,23.485
	C69.048,398.737,67.887,389.443,68.571,379.184z M77.363,426.282c0.119-0.172,0.242-0.34,0.347-0.522
	c11.43-19.903,26.751-31.203,39.062-40.282c2.023-1.493,9.304-6.4,10.927-7.351c0.112,0.083,0.227,0.163,0.34,0.246
	c5.605,4.143,11.412,8.025,17.397,11.598V497h-34.677v-37.574c0-4.142-3.358-7.5-7.5-7.5s-7.5,3.358-7.5,7.5V497H60.345
	C61.263,464.979,68.063,442.679,77.363,426.282z M160.436,398.115c8.204,4.038,16.656,7.537,25.312,10.482
	c4.54,12.836,22.027,52.636,68.039,66.841c1.435,0.442,2.99,0.442,4.425,0c31.8-9.802,56.831-35.828,68.054-66.846
	c8.651-2.944,17.098-6.442,25.297-10.478V497H160.436V398.115z M416.239,497v-37.574c0-4.142-3.358-7.5-7.5-7.5s-7.5,3.358-7.5,7.5
	V497h-34.676V389.971c1.521-0.908,3.028-1.844,4.529-2.792c0.025-0.016,0.051-0.032,0.076-0.048c4.366-2.77,13.02-8.92,13.133-9.005
	c0.041,0.024,0.079,0.046,0.121,0.07c4.573,2.701,8.857,5.831,13.119,8.99c0.018,0.013,0.036,0.027,0.054,0.04
	c11.863,8.792,25.986,19.887,36.694,38.532c0.105,0.184,0.229,0.352,0.348,0.525c9.3,16.397,16.1,38.696,17.017,70.716L416.239,497
	L416.239,497z M455.855,330.997c-6.557,11.625-13.988,24.8-12.429,48.187c0.684,10.259-0.477,19.553-3.452,27.772
	c-7.941-10.74-16.722-18.746-24.978-25.314c-0.008-0.006-0.015-0.012-0.023-0.018c-5.79-4.669-11.943-9.302-18.229-13.422
	c-0.02-0.013-0.04-0.027-0.06-0.04c21.718-18.877,38.869-41.784,50.479-67.526c3.92,2.521,8.528,3.98,13.177,4.227
	c1.902,0.101,3.858-0.011,5.755-0.328c0.012-0.002,0.024-0.002,0.035-0.004C464.673,315.364,460.505,322.752,455.855,330.997z
	 M481.785,260.156c-4.301-4.833-10.314-8.108-17.08-8.864c-0.015-0.002-0.031-0.004-0.046-0.006
	c-0.947-0.105-1.91-0.163-2.863-0.166c2.116-14.037,2.614-28.326,1.523-42.478c-0.288-3.742-0.67-7.485-1.18-11.203
	c0.677,0.107,1.35,0.229,2.018,0.373c4.25,0.916,8.395,2.602,12.036,4.987c10.151,6.532,16.892,17.925,16.892,30.869
	C493.086,243.834,488.961,253.308,481.785,260.156z"/>

</svg>
