<?xml version="1.0" encoding="iso-8859-1"?>
<!-- Generator: Adobe Illustrator 19.0.0, SVG Export Plug-In . SVG Version: 6.00 Build 0)  -->
<svg version="1.1" id="Capa_1" xmlns="http://www.w3.org/2000/svg" xmlns:xlink="http://www.w3.org/1999/xlink" x="0px" y="0px"
	 viewBox="0 0 512 512" >
<g>
	<path fill="#2FC8B4" d="M395.24,497.532l7.5,6.968h52.285c0-60.474-20.137-92.746-40.158-109.896l-93.32,24.021v62.391
		l13.319,23.484h52.874L395.24,497.532z"/>
	<path fill="#2FC8B4" d="M97.134,394.604c-20.021,17.15-40.158,49.422-40.158,109.896h52.286l7.5-6.968l7.5,6.968h52.874
		l13.32-23.484v-62.391L97.134,394.604z"/>
</g>
<polygon fill="#FF99B1" points="302.615,375.476 209.386,375.476 183.444,449.552 209.386,504.5 302.615,504.5
	328.557,449.552 "/>
<g>
	<path fill="#00AE95" d="M433.185,343.667l-130.569,8.36v23.449V504.5h32.251c0-58.666,51.483-77.646,80.001-109.896
		C426.739,381.196,434.625,365.486,433.185,343.667z"/>
	<path fill="#00AE95" d="M78.816,343.667c-1.441,21.819,6.446,37.529,18.318,50.937
		c28.518,32.251,80.001,51.231,80.001,109.896h32.251V375.476v-23.449L78.816,343.667z"/>
</g>
<path fill="#313D40" d="M47.207,45.041C55.882-5.36,105-2.426,160.994,38.426l-30.221,30.621L47.207,45.041z"/>
<path fill="#FF99B1" d="M130.773,69.047L60.814,139.91C47.165,97.775,43.506,66.544,47.207,45.04
	C80.614,3.389,130.773,69.047,130.773,69.047z"/>
<path fill="#313D40" d="M464.794,45.041c-8.675-50.4-57.793-47.466-113.787-6.614l30.221,30.621L464.794,45.041z"/>
<path fill="#FF99B1" d="M381.228,69.047l69.959,70.863c13.649-42.135,17.308-73.366,13.607-94.87
	C431.387,3.389,381.228,69.047,381.228,69.047z"/>
<path fill="#3A484A" d="M140.636,380.913C-79.588,294.077,78.312,12.107,256,12.107s335.588,281.97,115.364,368.806H140.636z
	"/>
<path fill="#313D40" d="M270.992,12.782c-1.234-0.109-2.47-0.205-3.706-0.289c-3.756-0.254-7.521-0.387-11.285-0.387
	c-46.257,0-90.615,19.228-126.592,47.464c-37.764,29.639-68.19,69.935-84.537,115.209c-0.081,0.223-0.161,0.447-0.241,0.671
	c-8.727,24.413-12.885,49.537-11.303,73.81c1.247,19.128,6.229,38.09,15.059,55.132c14.849,28.661,39.917,50.512,68.152,65.479
	c7.47,3.959,15.495,7.649,24.098,11.041h30C-43.367,296.529,99.694,27.892,270.992,12.782z"/>
<path fill="#EFEDEE" d="M371.365,380.913c-8.349,3.302-17.235,6.309-26.688,9.012c-57.908,16.572-119.444,16.572-177.353,0
	c-9.453-2.702-18.339-5.71-26.688-9.012C23.242,271.553,81.14,129.574,158.523,129.574c77.393,0,78.781,67.141,78.781,67.141h37.393
	c0,0,1.388-67.141,78.781-67.141C430.861,129.574,488.759,271.553,371.365,380.913z"/>
<g>
	<path fill="#F98084" d="M167.472,253.201h-27.023c-4.142,0-7.5-3.358-7.5-7.5s3.358-7.5,7.5-7.5h27.023
		c4.142,0,7.5,3.358,7.5,7.5S171.614,253.201,167.472,253.201z"/>
	<path fill="#F98084" d="M371.552,253.201h-27.023c-4.142,0-7.5-3.358-7.5-7.5s3.358-7.5,7.5-7.5h27.023
		c4.142,0,7.5,3.358,7.5,7.5S375.694,253.201,371.552,253.201z"/>
</g>
<path fill="#D4D2D3" d="M167.351,389.934c10.197,2.917,20.542,5.324,30.978,7.213c0.422,0.077,0.843,0.159,1.264,0.233
	c19.218,3.41,38.752,5.071,58.27,4.957c0.061,0,0.122-0.001,0.183-0.001c2.084-0.014,4.169-0.048,6.253-0.102
	c0.109-0.002,0.218-0.005,0.327-0.008c2.125-0.057,4.25-0.133,6.374-0.232c-24.838-1.155-49.572-5.171-73.676-12.07
	c-9.453-2.703-18.339-5.71-26.688-9.012c-26.894-10.604-48.144-24.121-64.412-39.676c9.213,13.487,20.598,26.808,34.412,39.676
	c6.262,2.476,12.825,4.787,19.704,6.928C162.669,388.565,165.006,389.263,167.351,389.934z"/>
<path d="M153.96,224.039c4.142,0,7.5-3.358,7.5-7.5v-19.84c0-4.142-3.358-7.5-7.5-7.5s-7.5,3.358-7.5,7.5v19.84
	C146.46,220.681,149.818,224.039,153.96,224.039z"/>
<path d="M358.04,224.039c4.142,0,7.5-3.358,7.5-7.5v-19.84c0-4.142-3.358-7.5-7.5-7.5s-7.5,3.358-7.5,7.5v19.84
	C350.54,220.681,353.898,224.039,358.04,224.039z"/>
<path d="M279.187,242.45c-3.119-2.727-7.857-2.408-10.583,0.71c-3.062,3.502-7.656,5.511-12.604,5.511
	c-4.949,0-9.543-2.008-12.604-5.511c-2.726-3.118-7.463-3.437-10.583-0.71c-3.118,2.726-3.437,7.464-0.71,10.583
	c5.91,6.762,14.62,10.639,23.898,10.639c9.277,0,17.987-3.877,23.897-10.639C282.623,249.914,282.305,245.176,279.187,242.45z"/>
<path d="M256,236.002c14.435,0,26.137-7.432,26.137-16.599c0-9.167-52.275-9.167-52.275,0S241.565,236.002,256,236.002z"/>
<path d="M42.637,309.572c7.345,13.707,16.88,26.141,28.536,37.263c-0.418,17.446,4.639,32.631,15.689,47.073
	C56.145,424.413,49.475,470.401,49.475,504.5c0,4.142,3.358,7.5,7.5,7.5h398.05c4.142,0,7.5-3.358,7.5-7.5
	c0-59.318-19.225-92.495-37.384-110.598c11.048-14.442,16.104-29.625,15.686-47.068c11.656-11.122,21.191-23.556,28.536-37.263
	c16.288-30.396,21.074-66.577,13.843-104.631c-4.214-22.175-12.416-44.496-23.911-65.813c12.48-39.442,16.853-71.316,12.976-94.769
	c-0.036-0.4-0.092-0.793-0.188-1.172C467.092,15.332,450.178,0,424.403,0c-20.893,0-46.367,10.208-73.888,29.559
	C320.051,13.256,287.766,4.606,256,4.606s-64.052,8.65-94.515,24.952C133.964,10.208,108.49,0,87.597,0
	C61.643,0,44.674,15.544,39.815,43.768c-4.046,23.505,0.307,55.591,12.89,95.36c-11.495,21.316-19.696,43.638-23.91,65.813
	C21.563,242.995,26.35,279.175,42.637,309.572z M135.913,365.755c-12.717-13.205-23.959-27.844-32.934-43.848
	C81.8,284.056,74.256,237.475,89.292,196.04c6.081-16.756,15.909-32.567,29.794-43.946c11.992-9.827,25.628-15.021,39.436-15.021
	c68.869,0,71.217,57.377,71.283,59.796c0.084,4.081,3.417,7.345,7.499,7.345h37.393c4.081,0,7.413-3.263,7.498-7.344
	c0.214-10.303,4.074-21.113,9.31-29.882c11.851-19.85,32.702-29.915,61.973-29.915c37.748,0,62.288,34.833,71.897,67.745
	c13.567,46.471-0.394,96.632-27.856,135.224c-8.588,12.069-18.444,23.176-29.163,33.389c-0.352,0.335-2.927,1.719-3.869,2.072
	c-34.543,12.95-71.634,19.334-108.496,19.334c-25.732,0-51.491-3.137-76.451-9.406c-3.398-0.853-26.753-7.85-34.839-10.998
	C141.702,371.611,138.782,368.711,135.913,365.755z M123.773,381.834c24.563,11.429,51.272,19.414,78.055,23.535
	c0.019,0.003,0.038,0.006,0.056,0.01V497h-17.521c-0.011-0.144-0.028-0.283-0.04-0.427c-0.486-6.21-1.574-12.389-3.324-18.369
	c-12.025-41.102-51.761-58.657-78.252-88.573c-8.388-9.473-13.433-18.895-15.505-29.288
	C98.609,368.78,110.943,375.864,123.773,381.834z M96.791,405.174c1.374,1.387,2.797,2.733,4.224,4.065
	c16.697,15.577,36.447,27.967,50.915,45.865c5.811,7.189,10.681,15.303,13.68,24.076c1.972,5.767,3.177,11.751,3.7,17.82h-45.05
	v-43.431c0-4.142-3.358-7.5-7.5-7.5s-7.5,3.358-7.5,7.5V497H64.587C65.801,456.911,76.847,425.44,96.791,405.174z M216.885,407.523
	c12.96,1.546,26.02,2.331,39.115,2.331c13.095,0,26.155-0.785,39.115-2.331V497h-78.23L216.885,407.523L216.885,407.523z
	 M447.413,497H402.74v-43.431c0-4.142-3.358-7.5-7.5-7.5s-7.5,3.358-7.5,7.5V497h-45.05c0.388-4.496,1.151-8.948,2.327-13.306
	c4.53-16.781,15.336-30.413,27.897-42.034c3.3-3.053,42.638-36.137,42.294-36.486C435.153,425.439,446.199,456.911,447.413,497z
	 M409.248,389.635c-7.273,8.225-16.182,15.591-25.64,23.306c-27.235,22.214-53.01,46.427-55.932,83.634
	c-0.011,0.143-0.029,0.281-0.04,0.425h-17.521v-91.622c0.013-0.002,0.026-0.005,0.039-0.007c5.958-0.991,11.889-2.146,17.787-3.463
	c34.318-7.666,68.4-20.471,96.815-41.565C422.684,370.737,417.639,380.16,409.248,389.635z M440.315,108.955
	c-10.258-14.194-21.906-27.407-34.658-39.408c-2.687-2.528-5.418-5.014-8.205-7.432c0.045-0.045,0.089-0.089,0.134-0.135
	c3.27-3.287,6.701-6.439,10.323-9.336c6.927-5.542,14.551-10.596,23.214-12.908c9.716-2.593,18.962,0.325,25.78,7.638
	c0.271,0.291,0.542,0.587,0.81,0.894c2.631,18.182-0.396,43.244-8.798,73.26C448.112,120.28,442.417,111.87,440.315,108.955z
	 M424.403,15c10.304,0,18.324,3.333,24.007,9.946c-0.119-0.032-0.242-0.053-0.361-0.083c-6.748-1.739-13.897-1.393-20.606,0.355
	c-12.067,3.146-22.89,10.417-32.233,18.472c-0.617,0.532-9.345,8.903-9.402,8.86c-6.828-5.297-13.812-10.179-20.92-14.638
	C387.376,23.072,408.232,15,424.403,15z M87.597,15c16.171,0,37.027,8.072,59.515,22.911c-7.108,4.459-14.092,9.341-20.92,14.638
	c-0.398-0.408-0.806-0.82-1.22-1.236c-6.621-6.593-13.756-12.732-21.703-17.684c-7.773-4.844-16.438-8.714-25.625-9.683
	c-4.687-0.494-9.491-0.216-14.053,1C69.273,18.333,77.293,15,87.597,15z M63.087,121.528c-8.403-30.016-11.43-55.079-8.798-73.26
	c0.268-0.307,0.539-0.603,0.81-0.894c4.799-5.144,11.049-8.672,18.223-8.672c12.319,0,23.721,7.951,32.755,15.582
	c2.734,2.311,8.427,7.785,8.472,7.831c-5.012,4.348-9.861,8.894-14.545,13.594c-2.393,2.393-4.742,4.834-7.037,7.32
	c-10.78,11.634-20.588,24.185-29.22,37.492C63.529,120.857,63.304,121.19,63.087,121.528z M43.531,207.741
	c4.097-21.562,12.247-43.306,23.728-64.017c0.035-0.059,0.078-0.112,0.112-0.172C104.957,76.557,176.341,19.606,256,19.606
	c30.52,0,61.665,8.732,91.007,25.136c0.114,0.072,0.215,0.162,0.332,0.228c39.15,22.14,72.024,55.154,94.662,93.966
	c12.427,21.305,21.854,44.524,26.468,68.805c6.584,34.646,2.321,67.408-12.328,94.746c-7.014,13.09-16.309,24.925-27.804,35.468
	c-0.073,0.062-0.157,0.11-0.229,0.175c-7.156,6.536-15.191,12.579-24.037,18.11c0.01-0.013,0.02-0.026,0.03-0.039
	c5.456-7.07,10.495-14.465,15.073-22.132c9.527-16.021,16.941-33.343,21.423-51.454c2.517-10.171,4.07-20.463,4.672-30.685
	c2.384-40.517-10.52-84.947-42.849-111.438c-14.704-12.05-31.628-18.419-48.943-18.419c-24.009,0-56.484,6.458-74.853,37.226
	c-6.808,11.403-9.563,22.783-10.676,29.915H244.05c-1.113-7.132-3.868-18.512-10.676-29.915
	c-18.369-30.768-50.844-37.226-74.853-37.226c-17.315,0-34.239,6.369-48.943,18.419c-5.284,4.33-10.195,9.322-14.67,14.884
	c-7.457,9.269-13.699,20.121-18.424,32.125c-6.728,17.092-10.098,35.944-10.039,55.253c0.04,13.212,1.684,26.638,4.96,39.876
	c4.471,18.068,11.867,35.473,21.418,51.437c4.593,7.676,9.64,15.091,15.104,22.173c-8.516-5.325-16.618-11.334-24.037-18.111
	c-0.071-0.064-0.153-0.111-0.226-0.173c-11.496-10.544-20.792-22.38-27.807-35.471C41.21,275.149,36.947,242.387,43.531,207.741z"/>
<g>
</g>
<g>
</g>
<g>
</g>
<g>
</g>
<g>
</g>
<g>
</g>
<g>
</g>
<g>
</g>
<g>
</g>
<g>
</g>
<g>
</g>
<g>
</g>
<g>
</g>
<g>
</g>
<g>
</g>
</svg>
