<?xml version="1.0" encoding="iso-8859-1"?>
<!-- Generator: Adobe Illustrator 19.0.0, SVG Export Plug-In . SVG Version: 6.00 Build 0)  -->
<svg version="1.1" id="Capa_1" xmlns="http://www.w3.org/2000/svg" xmlns:xlink="http://www.w3.org/1999/xlink" x="0px" y="0px"
	 viewBox="0 0 511.998 511.998" >
<path fill="#F98084" d="M381.419,397.329c-11.269-5.846-19.957-6.803-19.957-6.803H150.535c0,0-8.689,0.957-19.957,6.803
	l-21.89,63.854l21.89,43.318H381.42l21.89-43.318L381.419,397.329z"/>
<g>
	<path fill="#EFEDEE" d="M113.591,439.914l-28.389,20.017c-3.143,12.489-5.02,27.21-5.02,44.569h50.395v-44.569
		L113.591,439.914z"/>
	<path fill="#EFEDEE" d="M398.406,439.914l28.389,20.017c3.143,12.489,5.02,27.21,5.02,44.569H381.42v-44.569
		L398.406,439.914z"/>
</g>
<g>
	<path fill="#DC5A64" d="M130.578,397.329v62.603H85.202C94.528,422.822,115.011,405.407,130.578,397.329z"/>
	<path fill="#DC5A64" d="M381.419,397.329v62.603h45.376C417.469,422.822,396.986,405.407,381.419,397.329z"/>
</g>
<g>
	<path fill="#FF99B1" d="M130.578,353.568v97.605c0,13.82,11.203,25.023,25.023,25.023l0,0
		c13.82,0,25.023-11.203,25.023-25.023v-97.605H130.578z"/>
	<path fill="#FF99B1" d="M381.419,353.568v97.605c0,13.82-11.203,25.023-25.023,25.023l0,0
		c-13.82,0-25.023-11.203-25.023-25.023v-97.605H381.419z"/>
</g>
<ellipse fill="#DC5A64" cx="255.998" cy="409.72" rx="52.23" ry="46.741"/>
<path fill="#828081" d="M175.082,73.403c-28.754-30.067-71.315-33.591-94.37-32.982c-10.59,0.28-19.818,7.216-23.043,17.306
	C50.646,79.704,44.67,122.26,76.593,172.474L175.082,73.403z"/>
<path fill="#FF99B1" d="M98.202,69.075c-0.053-0.005-0.106-0.009-0.158-0.014c-8.573-0.758-16.16,5.526-17.135,14.077
	c-2.083,18.269,0.415,44.311,19.439,74.235l54.39-64.515C138.946,76.344,116.29,70.694,98.202,69.075z"/>
<path fill="#828081" d="M336.915,73.403c28.754-30.067,71.315-33.591,94.37-32.982c10.59,0.28,19.818,7.216,23.043,17.306
	c7.023,21.977,12.999,64.533-18.924,114.747L336.915,73.403z"/>
<path fill="#FF99B1" d="M413.795,69.075c0.053-0.005,0.106-0.009,0.158-0.014c8.573-0.758,16.16,5.526,17.135,14.077
	c2.083,18.269-0.415,44.311-19.439,74.235l-54.39-64.515C373.051,76.344,395.707,70.694,413.795,69.075z"/>
<path fill="#9E9C9D" d="M453.48,265.021c2.44-11.832,3.716-24.058,3.716-36.565c0-105.088-90.076-190.285-201.197-190.285
	S54.801,123.367,54.801,228.456c0,12.507,1.276,24.733,3.716,36.565l53.923,70.118h274.243L453.48,265.021z"/>
<path fill="#828081" d="M58.517,265.021L58.517,265.021l53.923,70.118h6.945c-14.92-20.802-25.606-44.542-30.869-70.118
	c-2.44-11.832-3.716-24.058-3.716-36.565c0-100.316,82.082-182.501,186.197-189.759c-1.334-0.093-2.672-0.172-4.014-0.241
	c-0.626-0.032-1.255-0.056-1.882-0.083c-0.97-0.041-1.942-0.077-2.916-0.105c-0.544-0.016-1.088-0.032-1.633-0.043
	c-1.495-0.031-2.992-0.053-4.495-0.054c-0.02,0-0.04,0-0.06,0c-79.869,0-148.865,44.013-181.357,107.79
	c-1.413,2.773-2.756,5.583-4.029,8.429c-3.182,7.114-5.919,14.449-8.178,21.974c-0.452,1.505-0.885,3.018-1.298,4.538
	c-4.135,15.2-6.334,31.134-6.334,47.554c0,11.726,1.135,23.199,3.286,34.337C58.23,263.536,58.365,264.281,58.517,265.021z"/>
<path fill="#EFEDEE" d="M453.48,265.021c-18.025,87.598-99.581,153.719-197.482,153.719S76.541,352.619,58.517,265.021
	c48.303,42.908,111.469,30.241,140.875-24.414c9.58-17.818,18.935-30.232,27.192-38.864c16.063-16.805,42.767-16.805,58.831,0
	c8.257,8.632,17.612,21.046,27.192,38.864C342.011,295.262,405.177,307.929,453.48,265.021z"/>
<path fill="#D4D2D3" d="M94.243,286.186c-12.307-4.129-24.423-11.125-35.725-21.165
	c18.024,87.598,99.579,153.719,197.48,153.719c0.028,0,0.056-0.001,0.084-0.001c1.342,0,2.681-0.017,4.017-0.042
	c0.725-0.015,1.449-0.037,2.172-0.059c0.573-0.017,1.146-0.034,1.718-0.055c0.962-0.037,1.922-0.079,2.88-0.128
	c0.267-0.014,0.534-0.028,0.8-0.042c1.112-0.061,2.222-0.127,3.329-0.205C187.77,412.408,118.636,358.733,94.243,286.186z"/>
<g>
	<path fill="#DC5A64" d="M241.314,53.389c-36.536,26.073-60.742,29.41-60.742-13.305s24.207-39.378,60.742-13.305V53.389z"/>
	<path fill="#DC5A64" d="M270.683,53.389c36.536,26.073,60.742,29.41,60.742-13.305s-24.207-39.378-60.742-13.305V53.389z"/>
</g>
<path fill="#F98084" d="M259.3,22.57h-6.602c-9.673,0-17.514,7.841-17.514,17.514l0,0c0,9.673,7.841,17.514,17.514,17.514
	h6.602c9.673,0,17.514-7.841,17.514-17.514l0,0C276.814,30.411,268.973,22.57,259.3,22.57z"/>
<path d="M164.948,214.842c-4.142,0-7.5,3.358-7.5,7.5v17.704c0,4.142,3.358,7.5,7.5,7.5s7.5-3.358,7.5-7.5v-17.704
	C172.448,218.2,169.09,214.842,164.948,214.842z"/>
<path d="M347.048,247.546c4.142,0,7.5-3.358,7.5-7.5v-17.704c0-4.142-3.358-7.5-7.5-7.5s-7.5,3.358-7.5,7.5v17.704
	C339.548,244.188,342.906,247.546,347.048,247.546z"/>
<path d="M278.34,236.449c0-7.836-44.684-7.836-44.684,0s10.003,14.188,22.342,14.188C268.337,250.637,278.34,244.285,278.34,236.449
	z"/>
<path d="M227.372,260.079c-6.355-7.271-17.668,2.58-11.294,9.872c5.636,6.448,13.94,10.146,22.783,10.146
	c6.229,0,12.186-1.842,17.136-5.18c4.95,3.338,10.907,5.18,17.136,5.18c8.843,0,17.147-3.698,22.783-10.146
	c6.343-7.258-4.912-17.173-11.294-9.872c-2.787,3.189-6.975,5.018-11.489,5.018s-8.702-1.829-11.49-5.018
	c-2.936-3.359-8.36-3.356-11.293,0c-2.787,3.189-6.975,5.018-11.489,5.018C234.347,265.097,230.159,263.268,227.372,260.079z"/>
<circle cx="155.598" cy="447.11" r="9.348"/>
<circle cx="356.398" cy="447.11" r="9.348"/>
<path d="M60.477,159.107c-8.688,21.989-13.176,45.397-13.176,69.348c0,37.26,11.252,73.958,31.805,105
	c2.287,3.454,6.94,4.399,10.394,2.113s4.399-6.94,2.113-10.394c-8.63-13.034-15.417-26.895-20.285-41.396
	c0.317,0.191,0.639,0.363,0.957,0.55c7.061,4.154,14.62,7.583,22.48,9.92c8.78,2.611,17.906,3.991,27.069,3.954
	c33.655-0.139,63.205-19.625,80.56-47.806c0.021-0.033,0.041-0.066,0.062-0.1c7.392-12.144,13.808-24.58,22.808-35.693
	c8.039-9.927,17.254-17.966,30.735-17.966c11.288,0,20.171,5.769,27.382,13.987c7.865,8.96,15.459,20.215,22.62,33.534
	c14.317,26.621,38.775,47.331,68.993,52.687c22.161,3.928,45.473-1.122,64.74-12.53c0.311-0.184,0.626-0.352,0.936-0.539
	c-21.591,64.346-79.492,112.136-149.266,124.385c-19.147,3.362-38.564,3.801-57.884,1.83c-46.744-5.117-91.929-27-124.001-61.954
	c-2.801-3.053-7.545-3.256-10.597-0.456c-3.052,2.801-3.256,7.545-0.456,10.597c7.589,8.271,15.83,15.861,24.612,22.738v12.001
	c-16.27,9.601-35.92,28.46-45.152,65.192c-3.48,13.828-5.244,29.435-5.244,46.389c0,4.142,3.358,7.5,7.5,7.5h351.633
	c4.142,0,7.5-3.358,7.5-7.5c0-16.946-1.764-32.549-5.246-46.397c-9.23-36.723-28.879-55.583-45.149-65.184v-12.055
	c36.223-28.344,62.408-68.179,71.906-114.33c7.362-35.772,4.113-73.46-9.307-107.427c22.686-46.013,16.06-84.554,9.953-103.663
	c-4.188-13.107-16.239-22.158-29.989-22.521c-1.511-0.04-3.103-0.063-4.766-0.063c-20.632,0-50.068,3.466-75.639,19.479
	c-4.045-1.96-8.169-3.794-12.361-5.509c0.138-2.138,0.208-4.385,0.208-6.746C338.925,6.955,324.47,0,312.344,0
	c-10.789,0-24.161,5.665-41.816,17.742c-3.379-1.706-7.192-2.672-11.229-2.672h-6.602c-4.037,0-7.85,0.967-11.229,2.672
	C223.812,5.665,210.44,0,199.652,0c-12.126,0-26.581,6.955-26.581,40.084c0,2.384,0.083,4.618,0.227,6.738
	c-4.199,1.717-8.329,3.554-12.38,5.518c-25.57-16.014-55.007-19.479-75.64-19.479c-15.482,0-29.751,6.937-34.753,22.583
	C44.418,74.555,37.793,113.097,60.477,159.107z M373.919,397.321c0,0.002,0,0.005,0,0.007v53.854
	c-0.005,9.657-7.863,17.513-17.522,17.513c-9.663,0-17.523-7.86-17.523-17.522v-41.151c12.284-5.04,24.013-11.185,35.046-18.355
	L373.919,397.321L373.919,397.321z M244.45,425.935c18.065,0.929,36.235-0.307,53.989-3.786
	c-5.936,15.645-22.762,26.807-42.442,26.807s-36.506-11.162-42.442-26.808C223.7,424.136,234.013,425.398,244.45,425.935z
	 M173.122,410.021v41.151c0,9.662-7.86,17.522-17.522,17.522s-17.522-7.86-17.522-17.522v-59.506
	C149.108,398.835,160.839,404.981,173.122,410.021z M123.077,411.038v41.393H95.204
	C102.105,431.924,112.805,419.072,123.077,411.038z M91.177,467.431h31.9V497h-35.27C88.167,486.425,89.294,476.523,91.177,467.431z
	 M138.077,478.56c5.175,3.329,11.374,5.135,17.522,5.135c17.933,0,32.522-14.59,32.522-32.522V415.54
	c2.942,0.96,5.905,1.85,8.882,2.682c4.51,26.05,29.339,45.735,58.994,45.735s54.484-19.685,58.993-45.734
	c2.978-0.832,5.94-1.722,8.882-2.682v35.633c0,17.933,14.59,32.522,32.523,32.522c6.179,0,12.325-1.791,17.522-5.135V497h-235.84
	V478.56z M388.919,497v-29.569h31.9c1.882,9.094,3.011,18.994,3.37,29.569H388.919z M416.792,452.431h-27.873v-41.393
	C399.191,419.072,409.89,431.925,416.792,452.431z M89.14,109.639c-1.474-8.664-1.738-17.247-0.78-25.652
	c0.5-4.392,4.549-7.853,8.99-7.459l0.183,0.017c7.255,0.649,14.045,1.865,20.308,3.63c-9.117,7.641-17.545,16.056-25.193,25.173
	C92.45,105.583,90.096,108.431,89.14,109.639z M414.612,76.532c4.532-0.403,8.508,2.939,9.023,7.455
	c0.958,8.404,0.695,16.987-0.78,25.652c-0.104-0.13-0.212-0.257-0.316-0.388c-8.458-10.609-17.985-20.361-28.385-29.075
	c6.264-1.765,13.053-2.981,20.308-3.631L414.612,76.532z M426.717,47.86c8.953,0,17.457,2.737,20.465,12.15
	c4.899,15.329,10.153,44.821-3.99,80.905c-2.676-5.125-5.589-10.154-8.746-15.071c4.339-14.653,5.72-29.288,4.093-43.557
	c-1.407-12.336-12.861-21.786-25.247-20.698c-0.003,0-0.164,0.015-0.167,0.015c-12.23,1.096-23.401,3.65-33.282,7.603
	c-4.266-2.982-8.656-5.807-13.158-8.475C387.39,50.269,410.155,47.86,426.717,47.86z M312.344,15c3.167,0,11.581,0,11.581,25.085
	c0,4.692-0.031,9.436-1.058,14.038c-0.778,3.488-2.104,7.169-5.028,9.432c-3.254,2.518-7.603,1.901-11.289,0.835
	c-8.921-2.58-17.149-7.425-24.841-12.524c-0.086-0.057-0.172-0.113-0.259-0.171c0.028-0.053,0.052-0.109,0.08-0.163
	c1.243-2.42,2.106-5.043,2.508-7.735c11.866-0.966,21.556-0.727,28.26,0.726c3.995,0.864,8.052-1.747,8.918-5.742
	c0.877-4.048-1.694-8.041-5.742-8.918c-8.452-1.831-19.8-2.139-33.789-0.924c-0.05-0.101-0.102-0.201-0.154-0.301
	c-0.028-0.055-0.052-0.111-0.081-0.166C298.078,17.465,307.365,15,312.344,15z M259.299,30.07c5.796,0,10.577,5.262,9.957,11.074
	c-0.532,4.993-4.937,8.955-9.957,8.955c0,0-6.602,0-6.612,0c-5.413-0.007-10.004-4.595-10.004-10.014
	c0-5.398,4.616-10.014,10.014-10.014C252.697,30.07,259.298,30.07,259.299,30.07z M199.652,15c4.979,0,14.266,2.465,30.896,13.471
	c-0.028,0.054-0.052,0.11-0.08,0.164c-0.052,0.101-0.104,0.201-0.155,0.302c-13.989-1.215-25.337-0.907-33.789,0.924
	c-4.048,0.877-6.619,4.87-5.742,8.918c0.861,3.973,4.952,6.601,8.918,5.742c6.703-1.453,16.394-1.692,28.26-0.726
	c0.033,0.221,0.074,0.438,0.113,0.658c0.446,2.521,1.288,4.973,2.474,7.241c-0.078,0.051-0.155,0.102-0.233,0.153
	c-9.287,6.127-20.082,13.953-31.769,13.293c-10.684-0.604-10.474-17.657-10.474-25.057C188.071,15,196.484,15,199.652,15z
	 M177.1,64.781c5.011,11.885,13.882,15.207,21.9,15.376c15.135,0.32,28.41-8.315,40.502-16.404c0.655-0.438,1.303-0.867,1.976-1.321
	c1.702,0.857,3.513,1.526,5.408,1.979c0.023,0.005,0.046,0.01,0.069,0.016c5.856,1.495,12.208,1.333,18.083,0
	c0.024-0.005,0.047-0.011,0.071-0.016c1.893-0.452,3.702-1.119,5.413-1.981c7.978,5.458,16.283,10.578,25.305,14.133
	c13.012,5.126,28.78,5.649,36.981-7.65c1.267-2.054,2.331-4.371,3.2-6.962c13.951,5.971,27.446,13.719,39.634,22.772
	c37.145,27.594,63.805,68.724,71.594,114.531c3.47,20.406,3.266,41.455-0.613,61.786c-0.022,0.019-0.043,0.038-0.065,0.057
	c-7.354,6.21-15.67,11.609-24.591,15.454c-10.632,4.583-22.415,7.087-34.093,6.61c-0.048-0.002-0.095-0.003-0.143-0.005
	c-27.011-1.028-51.647-16.933-66.867-43.149c-0.073-0.127-0.149-0.252-0.222-0.38c-14.265-24.82-31.718-57.987-64.645-57.987
	c-34.887,0-50.692,35.449-66.257,60.698c-14.789,23.989-37.662,38.797-62.821,40.67c-0.018,0.001-0.036,0.002-0.053,0.003
	c-23.015,1.261-43.772-7.79-61.433-21.919c-0.02-0.017-0.04-0.035-0.06-0.052c-2.039-10.679-3.072-21.627-3.072-32.584
	c0-23.052,4.525-45.564,13.262-66.617c0.023-0.051,0.053-0.097,0.075-0.149c16.898-40.708,49.135-74.012,88.208-94.036
	c0.069-0.035,0.129-0.08,0.197-0.117c3.911-1.99,7.901-3.859,11.968-5.599C176.32,62.851,177.08,64.734,177.1,64.781z M64.813,60.01
	c2.997-9.377,11.562-12.15,20.466-12.15c16.562,0,39.326,2.408,60.03,12.872c-4.501,2.668-8.891,5.493-13.157,8.475
	c-9.881-3.953-21.051-6.507-33.261-7.6l-0.188-0.017c-12.492-1.097-23.828,8.262-25.247,20.699
	c-1.626,14.271-0.245,28.906,4.093,43.556c-3.157,4.917-6.071,9.946-8.746,15.071C54.661,104.833,59.914,75.34,64.813,60.01z"/>

</svg>
