<?xml version="1.0" encoding="iso-8859-1"?>
<!-- Generator: Adobe Illustrator 19.0.0, SVG Export Plug-In . SVG Version: 6.00 Build 0)  -->
<svg version="1.1" id="Capa_1" xmlns="http://www.w3.org/2000/svg" xmlns:xlink="http://www.w3.org/1999/xlink" x="0px" y="0px"
	 viewBox="0 0 512.001 512.001">
<path fill="#937FE6" d="M467.635,269.638c11.016,56.64-23.71,55.618-20.646,101.578s-29.619,60.682-29.619,60.682H94.629
	c0,0-32.683-14.722-29.619-60.682c3.064-45.96-31.661-44.939-20.646-101.578v-50.891h418.965L467.635,269.638z"/>
<path fill="#8271CC" d="M95.011,371.216c3.064-45.96-31.661-44.939-20.646-101.578v-50.891h-30v50.891
	c-11.016,56.64,23.709,55.618,20.646,101.578c-3.064,45.96,29.619,60.682,29.619,60.682h30
	C124.629,431.898,91.947,417.176,95.011,371.216z"/>
<path fill="#937FE6" d="M34.1,218.747c0-56.696,23.263-109.922,65.503-149.871C141.453,29.298,196.996,7.5,256,7.5
	c59.005,0,114.548,21.797,156.398,61.377c42.24,39.949,65.503,93.174,65.503,149.871H34.1V218.747z"/>
<path fill="#8271CC" d="M139.603,68.877C176.689,33.804,224.529,12.708,276,8.356C269.387,7.797,262.718,7.5,256,7.5
	c-59.004,0-114.547,21.797-156.397,61.377C57.363,108.825,34.1,162.051,34.1,218.747h40C74.1,162.051,97.363,108.825,139.603,68.877
	z"/>
<g>
	<circle fill="#E3B098" cx="59.63" cy="229.12" r="43.3"/>
	<circle fill="#E3B098" cx="452.37" cy="229.12" r="43.3"/>
</g>
<path fill="#FBC4AC" d="M395.339,370.893L395.339,370.893L395.339,370.893c-11.406-8.428-19.866-11.596-19.866-11.596
	H136.528c0,0-8.46,3.167-19.866,11.596C93.06,388.328,56.831,423.351,56.831,504.5h65.374L256,488.669L389.794,504.5h65.374
	C455.169,423.351,418.94,388.328,395.339,370.893z"/>
<path fill="#E3B098" d="M402.646,376.596c-2.527-2.089-4.979-3.984-7.307-5.704l0,0l0,0
	c-11.406-8.428-19.866-11.596-19.866-11.596H136.528c0,0-8.46,3.167-19.866,11.596c-2.328,1.72-4.78,3.614-7.307,5.704
	c40.498,34.172,92.084,52.865,146.646,52.865C310.563,429.461,362.147,410.769,402.646,376.596z"/>
<path fill="#FBC4AC" d="M217.794,92.493c0,0-47.532,68.937-152.868,83.289c-3.454,13.792-5.293,28.175-5.293,42.966
	c0,102.567,87.916,185.714,196.367,185.714s196.367-83.147,196.367-185.714c0-14.791-1.838-29.174-5.293-42.966
	C304.274,157.435,217.794,92.493,217.794,92.493z"/>
<g>
	<path fill="#F98084" d="M170.262,265.999h-26.171c-4.142,0-7.5-3.358-7.5-7.5s3.358-7.5,7.5-7.5h26.171
		c4.142,0,7.5,3.358,7.5,7.5S174.404,265.999,170.262,265.999z"/>
	<path fill="#F98084" d="M367.91,265.999H341.74c-4.142,0-7.5-3.358-7.5-7.5s3.358-7.5,7.5-7.5h26.171
		c4.142,0,7.5,3.358,7.5,7.5S372.052,265.999,367.91,265.999z"/>
</g>
<path fill="#00AE95" d="M389.794,504.5c29.619-59.748-53.109-88.345-133.795-34.215
	c-80.685-54.131-163.413-25.533-133.795,34.215H389.794z"/>
<path fill="#009E87" d="M186.998,442.659c-50.714-6.915-85.673,19.719-64.792,61.841h30
	C135.794,471.394,153.884,447.863,186.998,442.659z"/>
<path fill="#FFCE1C" d="M452.549,94.122l-13.368-17.913l7.178-21.167c3.156-9.306-5.729-18.19-15.035-15.035l-21.167,7.178
	l-17.913-13.368c-7.875-5.877-19.07-0.172-18.945,9.653l0.286,22.349l-18.249,12.905c-8.023,5.674-6.057,18.084,3.326,21
	l21.343,6.634l6.635,21.343c2.917,9.383,15.327,11.349,21,3.326l12.905-18.249l22.349,0.286
	C452.721,113.192,458.426,101.997,452.549,94.122z"/>
<path d="M157.176,237.755c4.142,0,7.5-3.358,7.5-7.5V211.04c0-4.142-3.358-7.5-7.5-7.5s-7.5,3.358-7.5,7.5v19.215
	C149.676,234.397,153.034,237.755,157.176,237.755z"/>
<path d="M354.824,237.755c4.142,0,7.5-3.358,7.5-7.5V211.04c0-4.142-3.358-7.5-7.5-7.5s-7.5,3.358-7.5,7.5v19.215
	C347.324,234.397,350.682,237.755,354.824,237.755z"/>
<path d="M256,264.913c9.053,0,17.553-3.785,23.322-10.384c2.726-3.119,2.408-7.857-0.711-10.583
	c-3.118-2.726-7.856-2.409-10.583,0.711c-2.92,3.34-7.304,5.256-12.028,5.256c-4.725,0-9.109-1.916-12.029-5.256
	c-2.726-3.119-7.464-3.437-10.583-0.711s-3.437,7.464-0.711,10.583C238.446,261.128,246.947,264.913,256,264.913z"/>
<path d="M52.979,178.76c-2.297,0.306-4.572,0.779-6.809,1.382c-0.266,0.073-0.535,0.132-0.8,0.209
	c7.978-40.23,28.329-76.653,59.36-106c0.032-0.03,0.132-0.123,0.164-0.153c3.001-2.854,3.134-7.616,0.28-10.617
	c-2.855-3.001-7.587-3.133-10.589-0.279c-0.027,0.025-0.107,0.1-0.134,0.125C58.195,97.715,35.524,141.02,28.728,188.839
	c-12.085,9.295-19.894,23.887-19.894,40.277c0,19.479,11.026,36.422,27.159,44.943c-4.5,29.83,3.83,44.605,11.236,57.73
	c6.188,10.966,11.531,20.436,10.299,38.929c-1.176,17.64,2.329,33.052,10.392,45.908c-12.446,24.504-18.588,53.646-18.588,87.875
	c0,4.142,3.358,7.5,7.5,7.5c0,0,398.338,0,398.358,0c4.142,0,7.5-3.358,7.5-7.5c0-0.188-0.007-0.375-0.021-0.56
	c-0.067-33.985-6.21-62.944-18.588-87.315c8.063-12.857,11.568-28.27,10.392-45.908c-1.233-18.493,4.111-27.963,10.298-38.929
	c7.406-13.124,15.737-27.9,11.236-57.729c16.133-8.521,27.159-25.464,27.159-44.943c0-16.394-7.813-30.989-19.903-40.283
	c-3.757-26.412-12.396-51.521-25.734-74.776c1.097-1.243,2.052-2.635,2.821-4.168c3.303-6.586,2.617-14.346-1.791-20.251
	L447.55,74.884l5.912-17.433c2.029-5.985,1.093-12.348-2.569-17.456c-4.928-6.874-13.97-9.806-21.977-7.089l-17.433,5.911
	l-14.752-11.009c-3.389-2.529-7.375-3.866-11.528-3.866c-5.107,0-10.101,2.076-13.739,5.69C336.611,10.228,296.853,0,256,0
	c-50.095,0-97.605,15.054-137.395,43.534c-3.368,2.411-4.145,7.096-1.733,10.464s7.096,4.145,10.464,1.733
	C164.563,29.084,209.055,15,256,15c38.937,0,76.792,9.894,109.801,28.652l0.235,18.321c0,0-15.016,10.619-15.03,10.628
	c-12.86,9.094-9.54,29.632,5.431,34.286l17.578,5.464c0,0,5.463,17.575,5.464,17.578c2.143,6.894,8.271,12.223,15.402,13.358
	c7.204,1.146,14.67-1.968,18.883-7.927l10.628-15.029l18.407,0.235c0,0,0.97-0.01,1.169-0.019
	c10.889,18.744,18.48,38.789,22.657,59.803c-3.633-1.06-7.445-1.719-11.224-1.944c-0.335-1.497-0.687-2.981-1.053-4.446
	c-0.75-2.995-3.258-5.225-6.32-5.618c-72.579-9.325-130.067-31.067-165.512-47.666c-32.452-15.196-52.864-28.971-58.576-32.999
	c-2.306-1.626-4.38-3.045-7.353-2.587c-2.015,0.328-3.809,1.463-4.968,3.144c-1.82,2.639-3.937,5.056-6.033,7.475
	c-15.508,17.737-61.279,61.686-141.674,72.641c-2.991,0.408-5.539,2.663-6.263,5.609c-0.007,0.028-0.725,2.979-1.053,4.447
	c-0.265,0.016-0.526,0.049-0.79,0.069C54.862,178.547,53.919,178.635,52.979,178.76z M414.423,108.451
	c0,0-12.897,18.237-12.905,18.249c-2.012,2.845-6.737,2.198-7.714-1.222c0,0-6.631-21.331-6.635-21.344
	c-0.725-2.331-2.607-4.212-4.936-4.936c0,0-21.343-6.634-21.346-6.635c-3.398-1.057-4.106-5.672-1.219-7.714
	c0,0,18.245-12.903,18.249-12.905c1.939-1.371,3.2-3.746,3.169-6.22l-0.003-0.259c0,0-0.282-22.079-0.282-22.089
	c-0.045-3.547,4.115-5.669,6.96-3.546l17.913,13.367c1.979,1.477,4.557,1.885,6.894,1.092c0,0,21.084-7.15,21.167-7.178
	c3.363-1.14,6.654,2.188,5.524,5.523l-7.178,21.167c-0.793,2.338-0.385,4.916,1.092,6.895c0,0,13.362,17.906,13.368,17.913
	c2.103,2.818,0.035,6.933-3.547,6.959l-22.349-0.286C418.181,105.233,415.849,106.435,414.423,108.451z M23.834,229.116
	c0-12.607,6.555-23.708,16.431-30.087c4.102-2.65,8.745-4.438,13.564-5.225c-1.624,11.888-2.076,23.888-1.363,35.865
	c0.701,11.781,2.554,23.691,5.526,35.192c-3.638-0.164-7.237-0.877-10.657-2.13C33.636,257.702,23.834,244.535,23.834,229.116z
	 M50.424,279.079c0.201,0.037,0.404,0.058,0.606,0.093c3.794,0.653,7.672,0.88,11.516,0.658
	c10.905,31.084,29.866,58.825,55.359,81.053c-0.42,0.276-5.717,3.99-5.725,3.996c-9.768,7.218-23.315,18.432-35.37,36.432
	c-3.605-8.606-5.055-18.513-4.316-29.595c1.53-22.961-5.765-35.891-12.202-47.298C53.488,312.358,47.519,301.78,50.424,279.079z
	 M191.025,450.86c21.808,3.897,42.477,13.363,60.797,25.654c2.474,1.66,5.884,1.659,8.356,0
	c26.385-17.701,54.932-27.45,80.385-27.45c20.582,0,37.038,6.72,44.021,17.975c2.345,3.78,3.599,8.197,3.803,12.628
	c0.275,5.95-1.193,11.86-3.438,17.333H127.05c-0.054-0.133-0.115-0.268-0.168-0.4c-3.786-9.447-5.067-20.534,0.534-29.561
	C139.863,446.977,170.776,447.241,191.025,450.86z M400.911,497c4.855-15.505,2.1-27.216-2.073-35.212
	c-0.037-0.071-0.076-0.141-0.113-0.213c-10.962-20.71-36.364-27.511-58.162-27.511c-27.03,0-56.887,9.651-84.563,27.262
	c-27.676-17.611-57.532-27.262-84.563-27.262c-26.196,0-46.887,9.136-56.769,25.064c-4.938,7.958-8.992,20.559-3.573,37.872H64.386
	c0.501-26.22,5.567-82.278,56.733-120.076c2.903-2.145,5.912-4.146,9.013-5.991c0.047-0.028,0.093-0.054,0.14-0.082
	c0.864-0.51,16.984,11.342,18.97,12.497c32.248,18.753,69.472,28.613,106.758,28.613c44.658,0,89.667-14.322,125.728-41.11
	c0.037,0.022,0.073,0.042,0.11,0.065c16.449,9.783,31.183,23.89,41.738,40.057c12.104,18.756,22.784,46.194,23.981,86.027
	L400.911,497L400.911,497z M461.576,279.079c2.905,22.701-3.064,33.279-9.868,45.338c-6.437,11.407-13.732,24.337-12.202,47.298
	c0.739,11.081-0.711,20.988-4.316,29.595c-12.064-18.011-25.625-29.233-35.395-36.449c-1.862-1.376-3.766-2.707-5.701-3.979
	c25.496-22.229,44.455-49.967,55.36-81.053c0.076,0.004,3.939,0.103,5.789-0.001C457.326,279.712,459.501,279.461,461.576,279.079z
	 M464.666,262.729c-2.716,0.997-5.541,1.654-8.416,1.968c-0.746,0.081-1.493,0.136-2.243,0.169c0.129-0.5,0.239-1.005,0.364-1.506
	c4.262-17.055,6.049-34.713,5.317-52.277c-0.241-5.777-0.737-11.551-1.517-17.28c0.615,0.101,1.229,0.207,1.836,0.339
	c4.165,0.907,8.146,2.573,11.726,4.885c9.878,6.379,16.433,17.481,16.433,30.089C488.166,244.535,478.365,257.702,464.666,262.729z
	 M219.337,102.728c0.284,0.191,29.107,18.525,56.359,31.318c29.527,13.861,60.35,24.97,91.822,33.514
	c22.226,6.034,46.809,11.308,73.434,14.973c0.338,1.546,0.655,3.106,0.952,4.669c4.469,23.558,3.856,48.356-1.883,71.747
	C427.007,312.008,388.809,356.068,338,379.271c-25.65,11.657-53.833,17.69-82,17.69c-28.145,0-56.384-5.991-82-17.69
	c-50.81-23.203-89.008-67.264-102.023-120.328c-3.22-13.13-4.844-26.677-4.844-40.196c0-12.181,1.325-24.382,3.929-36.281
	c5-0.777,9.866-1.676,14.599-2.681c30.874-6.553,56.053-17.616,75.534-28.95c9.392-5.464,17.468-10.991,24.203-16.107
	C188.414,132.437,220.291,103.369,219.337,102.728z"/>
</svg>
