<?xml version="1.0" encoding="iso-8859-1"?>
<!-- Generator: Adobe Illustrator 19.0.0, SVG Export Plug-In . SVG Version: 6.00 Build 0)  -->
<svg version="1.1" id="Capa_1" xmlns="http://www.w3.org/2000/svg" xmlns:xlink="http://www.w3.org/1999/xlink" x="0px" y="0px"
	 viewBox="0 0 512 512">
<polygon fill="#EFEDEE" points="335.081,371.251 176.92,371.251 160.466,426.351 176.92,481.452 233.971,481.452
	256,469.428 278.03,481.452 335.081,481.452 351.535,426.351 "/>
<path fill="#2FC8B4" d="M154.022,371.251c0,0-68.023,7.48-68.023,110.2h36.142l7.495-5.286l7.495,5.286h39.789v-110.2
	L154.022,371.251L154.022,371.251z"/>
<path fill="#00AE95" d="M174.022,371.251h-20c0,0-68.023,7.48-68.023,110.2h20C106,378.732,174.022,371.251,174.022,371.251z
	"/>
<path fill="#2FC8B4" d="M382.364,477.564l7.493,3.887h36.144c0-102.72-68.023-110.2-68.023-110.2H335.08v110.2h39.791
	L382.364,477.564z"/>
<polygon fill="#BF4E57" points="270.568,436.906 256,420.983 241.433,436.906 233.971,481.452 278.03,481.452 "/>
<polygon fill="#DC5A64" points="224.568,412.032 241.433,436.906 270.568,436.906 287.433,412.032 301.058,404.384
	289.539,374.571 235.674,376.265 212.976,392.188 "/>
<g>
	<path fill="#D4D2D3" d="M207.894,371.251L176.92,382.69l20.352,39.85c4.413,6.658,13.85,7.531,19.41,1.796l17.288-26.979
		L207.894,371.251z"/>
	<path fill="#D4D2D3" d="M304.107,371.251l30.974,11.439l-20.352,39.85c-4.413,6.658-13.85,7.531-19.41,1.796l-17.288-26.979
		L304.107,371.251z"/>
</g>
<g>
	<circle fill="#FBC4AC" cx="61.45" cy="214.54" r="53.954"/>
	<circle fill="#FBC4AC" cx="450.55" cy="214.54" r="53.954"/>
</g>
<ellipse fill="#D4835F" cx="256" cy="214.54" rx="194.55" ry="183.99"/>
<path fill="#A36549;" d="M85.455,214.537c0-97.804,80.692-177.77,182.546-183.634c-3.97-0.229-7.969-0.358-12-0.358
	c-107.445,0-194.546,82.376-194.546,183.992s87.101,183.992,194.546,183.992c4.031,0,8.03-0.13,12-0.358
	C166.147,392.307,85.455,312.34,85.455,214.537z"/>
<path fill="#FBC4AC" d="M274.679,152.387c-11.684,6.029-25.673,6.029-37.357,0C169.435,117.36,75.485,145.611,104.568,256
	C136.439,376.974,256,371.254,256,371.254S375.562,376.974,407.433,256C436.516,145.611,342.566,117.36,274.679,152.387z"/>
<path d="M167.961,263.737c4.142,0,7.5-3.358,7.5-7.5v-17.118c0-4.143-3.358-7.5-7.5-7.5c-4.143,0-7.5,3.357-7.5,7.5v17.118
	C160.461,260.378,163.818,263.737,167.961,263.737z"/>
<path d="M344.04,263.737c4.142,0,7.5-3.358,7.5-7.5v-17.118c0-4.143-3.358-7.5-7.5-7.5s-7.5,3.357-7.5,7.5v17.118
	C336.54,260.378,339.898,263.737,344.04,263.737z"/>
<path d="M108.67,162.5c-22.477,29.165-18.581,67.983-11.354,95.412c6.99,26.534,18.663,49.299,34.693,67.662
	c13.198,15.119,29.394,27.328,48.138,36.287c47.162,22.544,104.55,22.54,151.702,0.003c18.744-8.959,34.941-21.167,48.14-36.287
	c16.032-18.364,27.705-41.129,34.696-67.665c7.226-27.427,11.121-66.243-11.358-95.41c-15.793-20.492-41.258-31.778-71.704-31.778
	c-20.485,0-41.365,5.187-60.383,15c-4.675,2.412-9.945,3.687-15.24,3.687c-5.296,0-10.566-1.275-15.24-3.687
	c-19.019-9.813-39.899-15-60.384-15C149.928,130.724,124.462,142.009,108.67,162.5z M180.377,145.724
	c18.103,0,36.604,4.609,53.506,13.33c6.791,3.504,14.439,5.356,22.117,5.356s15.326-1.852,22.118-5.356
	c16.901-8.72,35.403-13.33,53.506-13.33c25.688,0,46.934,9.21,59.823,25.935c14.846,19.264,17.866,47.768,8.734,82.432
	c-11.698,44.401-36.864,76.108-74.803,94.241c-43.16,20.628-95.601,20.629-138.763-0.004
	c-37.934-18.133-63.098-49.839-74.795-94.237c-9.133-34.667-6.114-63.172,8.73-82.434
	C133.438,154.934,154.686,145.724,180.377,145.724z"/>
<path d="M243.853,287.054c4.353,0,8.541-1.155,12.147-3.272c3.606,2.118,7.794,3.272,12.147,3.272
	c6.899,0,13.385-2.893,17.794-7.938c2.726-3.119,2.407-7.857-0.711-10.583c-3.119-2.727-7.857-2.407-10.583,0.711
	c-1.561,1.786-3.93,2.81-6.5,2.81s-4.939-1.024-6.5-2.81c-0.025-0.028-0.052-0.052-0.077-0.08c-2.878-3.216-8.265-3.214-11.14,0
	c-0.025,0.028-0.052,0.052-0.077,0.08c-1.561,1.786-3.93,2.81-6.5,2.81s-4.939-1.024-6.5-2.81
	c-2.726-3.119-7.464-3.437-10.583-0.711c-3.119,2.726-3.437,7.464-0.711,10.583C230.469,284.161,236.954,287.054,243.853,287.054z"
	/>
<path d="M426.001,488.954c4.142,0,7.5-3.358,7.5-7.5c0-30.852-6.351-73.123-36.605-99.293c-7.452-6.446-14.933-10.659-21.271-13.402
	c32.993-23.05,58.364-55.359,71.783-92.856c1.047,0.053,2.094,0.09,3.138,0.09c33.886,0,61.454-27.568,61.454-61.454
	s-27.568-61.454-61.454-61.454c-1.044,0-2.091,0.037-3.138,0.09C420.359,77.59,344.774,23.046,256,23.046
	c-42.359,0-82.914,12.293-117.282,35.55c-3.43,2.321-4.33,6.984-2.008,10.415c2.321,3.431,6.984,4.33,10.415,2.008
	C179.002,49.448,216.65,38.046,256,38.046c91.798,0,168.36,62.722,184.087,145.131c3.943,20.66,3.935,42.056,0.001,62.717
	c-13.5,70.75-71.837,126.986-146.16,141.487c-24.963,4.87-50.892,4.873-75.855,0c-74.323-14.5-132.661-70.737-146.16-141.487
	c-0.028-0.147-0.055-0.295-0.083-0.443c-5.177-27.431-3.389-56.237,5.287-82.776c8.924-27.528,24.989-52.716,47.315-73.567
	c3.027-2.828,3.189-7.573,0.362-10.601s-7.574-3.189-10.6-0.362c-22.903,21.391-39.733,47.01-49.695,75.024
	c-1.016-0.05-2.032-0.085-3.045-0.085C27.568,153.084,0,180.653,0,214.539s27.568,61.454,61.454,61.454
	c1.045,0,2.092-0.037,3.138-0.09c13.419,37.497,38.79,69.806,71.783,92.856c-6.339,2.743-13.819,6.956-21.272,13.402
	c-30.254,26.17-36.604,68.441-36.604,99.293c0,4.142,3.358,7.5,7.5,7.5L426.001,488.954L426.001,488.954z M452.052,168.108
	c24.921,0.797,44.948,21.319,44.948,46.43s-20.026,45.633-44.948,46.43c0.173-0.66,0.322-1.325,0.488-1.986
	c3.645-14.515,5.506-29.478,5.506-44.444c0-13.259-1.453-26.542-4.329-39.484C453.202,172.733,452.657,170.409,452.052,168.108z
	 M192.802,396.464c9.336,2.895,18.862,5.167,28.509,6.75l-10.448,16.304c-1.177,0.967-2.451,1.123-3.151,1.123
	c-0.774,0-2.658-0.198-3.995-1.969l-11.423-22.367C192.463,396.359,192.633,396.412,192.802,396.464z M237.811,405.268
	c6.048,0.506,12.12,0.763,18.19,0.763c6.067,0,12.144-0.252,18.189-0.763l4.261,6.649l-11.859,17.491H245.41l-11.859-17.491
	L237.811,405.268z M308.963,399.371c3.607-0.93,7.189-1.951,10.743-3.065l-11.423,22.367c-1.336,1.771-3.219,1.969-3.994,1.969
	c-0.701,0-1.976-0.156-3.153-1.123l-10.447-16.304C296.843,402.205,302.935,400.924,308.963,399.371z M247.781,444.408h16.438
	l4.949,29.546h-26.337L247.781,444.408z M284.378,473.954l-5.917-35.323l8.795-12.972c0,0,1.746,2.725,1.747,2.727
	c7.132,11.129,26.656,8.825,32.404-2.432c0.001-0.001,6.173-12.086,6.173-12.086v60.086L284.378,473.954L284.378,473.954z
	 M124.264,394.078c11.716-10.389,23.628-13.905,28.403-14.963c5.435,3.071,11.045,5.911,16.753,8.481v86.357h-32.284v-34.138
	c0-4.143-3.358-7.5-7.5-7.5s-7.5,3.357-7.5,7.5v34.138H93.632C94.913,438.29,105.437,410.772,124.264,394.078z M184.42,413.867
	l6.173,12.087c5.743,11.225,25.254,13.586,32.404,2.431l1.747-2.726l8.795,12.972l-5.917,35.323H184.42V413.867z M418.368,473.954
	h-28.504v-34.138c0-4.143-3.358-7.5-7.5-7.5s-7.5,3.357-7.5,7.5v34.138H342.58v-86.357c5.707-2.57,11.316-5.41,16.75-8.479
	c4.804,1.063,16.703,4.584,28.406,14.961C406.563,410.772,417.088,438.29,418.368,473.954z M59.901,168.111
	c-2.451,9.375-4.153,18.972-5.088,28.725c-0.01,0.098-0.018,0.196-0.027,0.293c-1.894,19.943-0.501,40.148,4.13,59.639
	c0.064,0.269,0.875,4.195,1.032,4.2C35.026,260.171,15,239.65,15,214.539C15,189.443,35.001,168.933,59.901,168.111z"/>
<g>
</g>
<g>
</g>
<g>
</g>
<g>
</g>
<g>
</g>
<g>
</g>
<g>
</g>
<g>
</g>
<g>
</g>
<g>
</g>
<g>
</g>
<g>
</g>
<g>
</g>
<g>
</g>
<g>
</g>
</svg>
