<?xml version="1.0" encoding="iso-8859-1"?>
<!-- Generator: Adobe Illustrator 19.0.0, SVG Export Plug-In . SVG Version: 6.00 Build 0)  -->
<svg version="1.1" id="Layer_1" xmlns="http://www.w3.org/2000/svg" xmlns:xlink="http://www.w3.org/1999/xlink" x="0px" y="0px"
	 viewBox="0 0 512 512" xml:space="preserve" width="1.78em" height="1.78em">
<path fill="#1E0478" d="M441.882,246.785v228.305c0,20.35-16.561,36.911-36.911,36.911H107.029
	c-20.35,0-36.911-16.561-36.911-36.911V246.785c0-20.35,16.561-36.911,36.911-36.911h36.898v-97.801C143.927,50.285,194.212,0,256,0
	s112.073,50.285,112.073,112.073v44.268c0,6.792-5.512,12.304-12.304,12.304c-6.804,0-12.304-5.512-12.304-12.304v-44.268
	c0-48.23-39.236-87.466-87.466-87.466s-87.466,39.236-87.466,87.466v97.801h236.437
	C425.321,209.874,441.882,226.435,441.882,246.785z M417.275,475.089V246.785c0-6.779-5.512-12.304-12.304-12.304H107.029
	c-6.792,0-12.304,5.524-12.304,12.304v228.305c0,6.779,5.512,12.304,12.304,12.304h297.943
	C411.763,487.393,417.275,481.869,417.275,475.089z"/>
<path fill="#9B8CCC" d="M417.275,246.785v228.305c0,6.779-5.512,12.304-12.304,12.304H107.029
	c-6.792,0-12.304-5.524-12.304-12.304V246.785c0-6.779,5.512-12.304,12.304-12.304h297.943
	C411.763,234.481,417.275,240.005,417.275,246.785z M290.954,364.37c10.077-9.548,15.859-22.995,15.859-36.886
	c0-28.015-22.798-50.814-50.814-50.814s-50.814,22.798-50.814,50.814c0,13.891,5.783,27.326,15.859,36.886v45.88
	c0,19.267,15.687,34.954,34.954,34.954s34.954-15.687,34.954-34.954V364.37z"/>
<path fill="#1E0478" d="M306.814,327.484c0,13.891-5.783,27.339-15.859,36.886v45.88c0,19.267-15.687,34.954-34.954,34.954
	s-34.954-15.687-34.954-34.954v-45.88c-10.077-9.56-15.859-22.995-15.859-36.886c0-28.015,22.798-50.814,50.814-50.814
	S306.814,299.468,306.814,327.484z M273.975,346.554c5.303-4.995,8.231-11.775,8.231-19.07c0-14.444-11.762-26.207-26.207-26.207
	c-14.444,0-26.207,11.762-26.207,26.207c0,7.296,2.928,14.075,8.231,19.07c4.848,4.577,7.628,10.962,7.628,17.533v46.163
	c0,5.697,4.638,10.347,10.347,10.347c5.709,0,10.347-4.651,10.347-10.347v-46.163C266.347,357.517,269.128,351.131,273.975,346.554z
	"/>
<path fill="#FFFFFF" d="M282.207,327.484c0,7.296-2.928,14.075-8.231,19.07c-4.848,4.577-7.628,10.962-7.628,17.533v46.163
	c0,5.697-4.638,10.347-10.347,10.347c-5.709,0-10.347-4.651-10.347-10.347v-46.163c0-6.57-2.781-12.956-7.628-17.533
	c-5.303-4.995-8.231-11.775-8.231-19.07c0-14.444,11.762-26.207,26.207-26.207C270.444,301.277,282.207,313.039,282.207,327.484z"/>

</svg>
