<?xml version="1.0" encoding="iso-8859-1"?>
<!-- Generator: Adobe Illustrator 19.0.0, SVG Export Plug-In . SVG Version: 6.00 Build 0)  -->
<svg version="1.1" id="Capa_1" xmlns="http://www.w3.org/2000/svg" xmlns:xlink="http://www.w3.org/1999/xlink" x="0px" y="0px"
	 viewBox="0 0 512.001 512.001">
<path fill="#FFA74F" d="M375.482,383.034H150.678c0,0-74.975,8.238-74.975,121.466H116.3l0,0l7.5-4.004l7.5,4.004l0,0
	h263.561l7.5-4.692l7.5,4.692h40.597C450.457,391.272,375.482,383.034,375.482,383.034z"/>
<path fill="#DC5A64" d="M442.59,321.26c0,0,16.8,78.88-69.61,115.48h-0.01L332.08,421l-18-99.74H442.59z"/>
<path fill="#F98084" d="M361,390.76l-46.92-69.5h-46.29l-34.68,39.073L263.08,455c48.26,0,83.79-7.2,109.89-18.26
	C375.19,408.48,361,390.76,361,390.76z"/>
<path fill="#DC5A64" d="M82.859,348.58c-28.112,14.247-42.357,49.13-47.49,64.698c-1.721,5.219-0.882,10.954,2.245,15.473
	c10.595,15.314,27.207,24.218,39.851,29.102c8.919,3.445,18.98-0.86,22.603-9.708c6.976-17.038,17.218-33.303,17.218-33.303
	S119.576,329.972,82.859,348.58z"/>
<path fill="#BF4E57" d="M45.369,433.278c5.133-15.568,19.379-50.451,47.49-64.698c8.582-4.349,15.032-3.043,19.88,1.508
	c-4.415-16.818-13.046-30.039-29.88-21.508c-28.112,14.247-42.357,49.13-47.49,64.698c-1.721,5.219-0.882,10.954,2.245,15.473
	c2.105,3.042,4.454,5.822,6.956,8.377C44.69,435.831,44.953,434.539,45.369,433.278z"/>
<path fill="#F98084" d="M83.57,321.26c0,0-16.8,78.88,69.61,115.48h0.01L194.08,421l18-99.74H83.57z"/>
<path fill="#DC5A64" d="M267.79,321.26l-4.71,91.84V455c-48.26,0-83.79-7.2-109.89-18.26
	c-2.22-28.26,11.97-45.98,11.97-45.98l46.92-69.5L267.79,321.26L267.79,321.26z"/>
<path fill="#00A1E0" d="M165.16,390.76C95.97,357.12,48.65,288.94,48.65,210.3c0-112,96-202.8,214.43-202.8
	s214.43,90.8,214.43,202.8c0,78.64-47.32,146.82-116.51,180.46H165.16z"/>
<path fill="#008FC7" d="M165.16,390.76h30l0,0C125.97,357.12,78.65,288.94,78.65,210.3
	c0-107.23,88.001-195.015,199.43-202.298c-2.011-0.131-4.03-0.232-6.055-0.313c-0.749-0.029-1.497-0.059-2.248-0.081
	c-0.677-0.021-1.354-0.038-2.032-0.052c-1.539-0.031-3.08-0.055-4.627-0.055c-0.013,0-0.025,0-0.037,0
	c-62.916,0-119.502,25.626-158.726,66.443c-12.69,13.206-23.564,28.001-32.246,44.034c-5.525,10.202-10.163,20.905-13.818,32.018
	c-0.522,1.587-1.024,3.184-1.506,4.788c-5.298,17.644-8.134,36.268-8.134,55.518c0,3.687,0.104,7.35,0.309,10.987
	c0.479,8.488,1.51,16.838,3.059,25.017c10.625,56.088,45.63,104.175,94.279,134.104c4.054,2.494,8.203,4.862,12.44,7.098
	C160.857,388.624,162.998,389.709,165.16,390.76L165.16,390.76z"/>
<path fill="#EFEDEE" d="M408.05,326.85c-10.96,23.96-27.45,45.32-47.05,63.91c-29.35,14.28-62.64,22.34-97.92,22.34
	s-68.57-8.06-97.92-22.34c-19.6-18.59-36.09-39.95-47.05-63.91C93.17,272.33,72.21,129,166.04,129c40.96,0,67.36,26,67.36,100.15
	h59.36c0-74.15,26.4-100.15,67.36-100.15C453.95,129,432.99,272.33,408.05,326.85z"/>
<path fill="#D4D2D3" d="M263.126,413.099c1.802,0,3.595-0.035,5.386-0.077c0.665-0.017,1.332-0.03,1.995-0.052
	c1.345-0.043,2.684-0.106,4.022-0.172c1.186-0.061,2.37-0.129,3.551-0.206c-29.714-1.943-57.767-9.594-82.92-21.832
	c-30.279-14.721-56.369-36.058-76.138-61.991c10.953,23.18,27.065,43.9,46.138,61.991l0,0c1.834,0.893,3.684,1.761,5.549,2.604
	c5.594,2.531,11.322,4.838,17.172,6.911c1.95,0.691,3.913,1.356,5.89,1.994c3.953,1.276,7.958,2.447,12.011,3.507
	c18.239,4.773,37.454,7.323,57.299,7.323C263.095,413.1,263.111,413.099,263.126,413.099z"/>
<g>
	<path fill="#F98084" d="M178.891,257.886h-25.698c-4.142,0-7.5-3.358-7.5-7.5s3.358-7.5,7.5-7.5h25.698
		c4.142,0,7.5,3.358,7.5,7.5S183.033,257.886,178.891,257.886z"/>
	<path fill="#F98084" d="M372.968,257.886H347.27c-4.142,0-7.5-3.358-7.5-7.5s3.358-7.5,7.5-7.5h25.698
		c4.142,0,7.5,3.358,7.5,7.5S377.11,257.886,372.968,257.886z"/>
</g>
<path fill="#F2973D" d="M292.76,229.15c0.19,1.36,0.29,2.74,0.29,4.15c0,16.55-13.42,29.96-29.97,29.96
	s-29.97-13.41-29.97-29.96c0-1.41,0.1-2.79,0.29-4.15H292.76z"/>
<path fill="#FFA74F" d="M292.76,229.15c-7.66,5.04-18.13,8.15-29.68,8.15s-22.02-3.11-29.68-8.15
	c2.01-14.58,14.54-25.82,29.68-25.82C278.22,203.33,290.75,214.57,292.76,229.15z"/>
<path d="M166.036,230.152c4.142,0,7.5-3.358,7.5-7.5v-18.868c0-4.142-3.358-7.5-7.5-7.5s-7.5,3.358-7.5,7.5v18.868
	C158.536,226.794,161.893,230.152,166.036,230.152z"/>
<path d="M360.113,230.152c4.142,0,7.5-3.358,7.5-7.5v-18.868c0-4.142-3.358-7.5-7.5-7.5s-7.5,3.358-7.5,7.5v18.868
	C352.613,226.794,355.971,230.152,360.113,230.152z"/>
<path d="M28.24,410.93c-2.441,7.406-1.245,15.664,3.201,22.089c10.956,15.834,27.52,25.308,40.448,30.678
	c-2.442,12.497-3.691,26.178-3.691,40.804c0,4.142,3.358,7.5,7.5,7.5h374.754c4.142,0,7.5-3.358,7.5-7.5
	c0-42.36-10.079-75.505-29.964-98.669c26.823-33.608,24.033-71.658,22.477-82.847c0.327-0.487,0.671-0.962,0.993-1.453
	c21.946-33.307,33.546-71.77,33.546-111.231c0-56.251-23.138-109.114-65.15-148.849C377.955,21.824,322.277,0,263.075,0
	c-42.054,0-82.996,11.207-118.401,32.408c-3.554,2.128-4.709,6.734-2.582,10.288c2.127,3.554,6.733,4.709,10.288,2.582
	C185.457,25.469,223.735,15,263.075,15c114.102,0,206.93,87.611,206.93,195.3c0,36.519-10.745,72.128-31.071,102.979
	c-10.647,16.159-23.74,30.679-38.568,43.101c-0.194,0.163-0.532,0.35-0.673,0.562c0.135-0.201,0.264-0.403,0.398-0.604
	c5.97-8.955,11.262-18.377,15.608-28.227c9.957-22.57,17.621-54.514,20.106-84.009c2.59-30.737,1.364-64.879-15.828-91.651
	c-13.139-20.46-35.927-30.95-59.862-30.95c-24.06,0-42.584,8.51-55.06,25.295c-10.685,14.376-15.494,32.244-17.824,49.761
	c-0.316,2.374-0.592,4.753-0.824,7.136c-0.01,0.105-0.023,0.206-0.033,0.31c0.079-1.086-5.997-3.913-6.754-4.287
	c-5.129-2.533-10.823-3.886-16.546-3.886c-5.859,0-11.624,1.437-16.852,4.064c-0.903,0.454-6.54,3.153-6.449,4.111
	c-0.01-0.104-0.023-0.203-0.033-0.306c-0.288-2.952-0.634-5.9-1.059-8.835c-2.85-19.81-9.071-39.628-23.613-54.037
	c-13.032-12.913-30.826-19.326-49.035-19.326c-31.311,0-56.683,17.71-67.867,46.942c-0.025,0.064-0.049,0.128-0.074,0.193
	c-9.132,23.87-9.871,50.272-7.749,75.466c2.485,29.496,10.149,61.439,20.106,84.009c4.317,9.786,9.644,19.288,15.606,28.224
	c0.135,0.202,0.264,0.405,0.399,0.606c-14.023-11.647-26.408-25.061-36.701-39.916c-0.859-1.24-1.709-2.487-2.539-3.747
	c-20.327-30.85-31.072-66.459-31.072-102.979c0-56.98,26.294-110.987,72.142-148.173c3.217-2.609,3.709-7.332,1.1-10.549
	c-2.609-3.217-7.332-3.709-10.549-1.1C69.46,90.524,41.143,148.777,41.143,210.3c0,39.461,11.6,77.925,33.546,111.231
	c0.321,0.487,0.662,0.959,0.987,1.443c-0.576,4.094-1.309,11.733-0.702,21.428C47.14,361.252,33.112,396.153,28.24,410.93z
	 M409.854,497v-33.917c0-4.142-3.358-7.5-7.5-7.5s-7.5,3.358-7.5,7.5V497h-263.56v-33.917c0-4.142-3.358-7.5-7.5-7.5
	s-7.5,3.358-7.5,7.5V497H83.315c0.346-10.915,1.457-21.17,3.317-30.626c0.085-0.01,1.078-0.146,1.486-0.217
	c6.308-1.079,12.075-4.645,15.862-9.803c2.502-3.407,3.851-7.463,5.591-11.273c1.924-4.211,9.85-18.883,9.75-18.961
	c40.195,31.185,94.577,36.38,143.753,36.38c53.21,0,114.277-7.127,154.681-45.54c15.601,18.976,24.021,45.835,25.081,80.04
	L409.854,497L409.854,497z M175.218,403.478c17.327,7.125,35.524,12.031,54.063,14.712c8.704,1.258,17.504,2.023,26.294,2.295v26.95
	c-8.405-0.131-16.796-0.632-25.183-1.182c-18.604-1.471-37.179-4.32-55.1-9.619c-4.833-1.429-14.663-4.981-14.835-5.047
	c0-0.036,0.001-0.07,0-0.105c-0.059-6.356,0.789-12.725,2.544-18.835c1.221-4.252,2.871-8.389,4.963-12.288
	C170.364,401.442,172.784,402.477,175.218,403.478z M276.766,420.209c25.717-1.462,51.202-7.348,75.036-17.098
	c0.539-0.221,6.369-2.771,6.38-2.751c2.09,3.888,3.745,8.02,4.957,12.264c1.748,6.119,2.611,12.492,2.552,18.855
	c0,0.036,0.001,0.071,0,0.108c-0.004,0.213-21.577,7.156-31.418,9.237c-19.917,4.212-40.266,6.067-60.597,6.551
	c-0.939,0.022-1.878,0.041-2.817,0.057c-0.094,0.001-0.191,0.001-0.285,0.002v-26.95
	C272.64,420.417,274.704,420.326,276.766,420.209z M436.304,341.759c-0.287,6.236-1.205,13.624-3.359,21.549
	c-7.495,27.581-27.468,48.643-52.452,61.613c-0.47-6.658-1.799-13.351-3.916-19.682c-0.312-0.933-4.573-11.678-4.904-11.502
	c1.748-0.931,3.478-1.89,5.197-2.865c16.564-9.391,31.912-20.9,45.537-34.202C427.268,351.924,431.914,346.944,436.304,341.759z
	 M283.973,241.554c-3.297,8.313-11.422,14.206-20.898,14.206c-9.477,0-17.602-5.893-20.899-14.206
	c0.088,0.029,0.18,0.053,0.268,0.082c6.247,2.036,12.813,3.025,19.375,3.151c0.419,0.008,0.837,0.013,1.256,0.013
	c6.587,0,13.17-0.935,19.485-2.81C283.032,241.849,283.504,241.706,283.973,241.554z M242.59,224.096
	c3.137-6.966,9.98-12.039,17.545-13.058c1.837-0.247,3.662-0.258,5.503-0.044c7.795,0.905,14.699,5.956,17.922,13.092
	c0.096,0.212,0.443,1.085,0.527,1.307c0.155,0.411-7.613,2.735-8.345,2.914c-4.144,1.01-8.403,1.494-12.668,1.494
	c-5.14,0-10.303-0.689-15.225-2.188c-0.48-0.146-5.876-1.989-5.789-2.219C242.146,225.167,242.498,224.302,242.59,224.096z
	 M105.291,242.841c-3.771-44.761,5.261-69.453,13.502-82.286c10.277-16.003,28.61-24.055,47.241-24.055
	c25.663,0,59.766,9.583,59.857,92.323c-0.179,1.492-0.288,2.994-0.288,4.477c0,20.656,16.809,37.46,37.471,37.46
	c20.661,0,37.47-16.804,37.47-37.46c0-1.489-0.109-2.991-0.288-4.479c0.091-82.738,34.195-92.321,59.858-92.321
	c21.392,0,36.844,7.868,47.24,24.055c15.494,24.124,15.83,54.66,13.502,82.287c-2.891,34.314-12.037,64.284-19.633,80.889
	c-9.895,21.631-24.454,40.89-41.284,57.597c-3.829,3.8-8.034,5.454-12.937,7.533c-26.422,11.199-55.261,16.74-83.928,16.74
	c-31.473,0-62.746-6.708-91.291-20.014c-4.335-2.021-7.532-6.194-10.788-9.641c-14.59-15.446-27.211-32.843-36.071-52.215
	C117.329,307.125,108.183,277.156,105.291,242.841z M93.064,345.452c8.472,9.549,17.741,18.394,27.79,26.272
	c10.037,7.868,20.774,15.022,32.017,21.148c0.534,0.291,1.069,0.579,1.605,0.865c-4.407,8.328-7.187,17.462-8.382,26.798
	c-0.106,0.83-0.395,3.751-0.439,4.38c-8.807-4.571-16.669-9.83-23.452-15.732c-19.286-16.787-27.339-36.512-30.518-52.399
	c-0.976-4.949-1.589-9.959-1.817-14.999C90.21,342.189,92.339,344.636,93.064,345.452z M77.226,360.984
	c1.47,6.972,3.61,13.83,6.423,20.378c0.015,0.035,0.031,0.07,0.046,0.105c4.948,11.553,12.516,23.599,24.008,34.755
	c-0.025,0.043-0.053,0.092-0.078,0.134c-3.947,6.681-7.599,13.593-10.88,20.626c-1.455,3.119-2.508,6.555-4.224,9.536
	c-2.435,4.232-7.815,6.093-12.358,4.339c-11.293-4.363-26.773-12.48-36.387-26.374c-1.785-2.58-2.268-5.891-1.29-8.857
	C46.469,403.547,57.226,376.342,77.226,360.984z"/>
<g>
</g>
<g>
</g>
<g>
</g>
<g>
</g>
<g>
</g>
<g>
</g>
<g>
</g>
<g>
</g>
<g>
</g>
<g>
</g>
<g>
</g>
<g>
</g>
<g>
</g>
<g>
</g>
<g>
</g>
</svg>
