<?xml version="1.0" encoding="iso-8859-1"?>
<!-- Generator: Adobe Illustrator 19.0.0, SVG Export Plug-In . SVG Version: 6.00 Build 0)  -->
<svg version="1.1" id="Capa_1" xmlns="http://www.w3.org/2000/svg" xmlns:xlink="http://www.w3.org/1999/xlink" x="0px" y="0px"
	 viewBox="0 0 512.001 512.001">
<polygon fill="#A36549" points="273.06,369.23 238.94,369.23 209.5,439 238.94,504.5 273.06,504.5 309.5,428 "/>
<g>
	<path fill="#D4835F" d="M395.5,504.5l7.5-5.405l7.5,5.405l0,0h43.36c0-19.74-2.16-36.65-5.76-51.12
		c-18.22-73.2-73.41-84.15-73.41-84.15H273.06V504.5H395.5L395.5,504.5z"/>
	<path fill="#D4835F" d="M137.31,369.23c0,0-55.19,10.95-73.41,84.15c-3.6,14.47-5.76,31.38-5.76,51.12h43.36l0,0l7.5-4.937
		l7.5,4.937l0,0h122.44V369.23H137.31z"/>
</g>
<path fill="#A36549" d="M158.31,369.23h-21c0,0-55.19,10.95-73.41,84.15c-3.6,14.47-5.76,31.38-5.76,51.12h21
	c0-19.74,2.16-36.65,5.76-51.12C103.12,380.18,158.31,369.23,158.31,369.23z"/>
<g>
	<path fill="#D4835F" d="M36.438,277.815v97.511c0,8.289,6.719,15.008,15.008,15.008s15.008-6.719,15.008-15.008v-97.511
		H36.438z"/>
	<path fill="#D4835F" d="M475.563,277.815v97.511c0,8.289-6.719,15.008-15.008,15.008s-15.008-6.719-15.008-15.008v-97.511
		H475.563z"/>
</g>
<g>
	<ellipse fill="#A36549" cx="69.23" cy="245.44" rx="58.893" ry="69.56"/>
	<ellipse fill="#A36549" cx="442.77" cy="245.44" rx="58.893" ry="69.56"/>
</g>
<path fill="#D4835F" d="M62.318,155.628c0,0,2.517-148.128,193.683-148.128s193.683,148.128,193.683,148.128l-193.182,21.171
	L62.318,155.628z"/>
<path fill="#A36549" d="M102.318,155.628c0,0,2.346-137.603,173.683-147.555C269.572,7.7,262.914,7.5,256,7.5
	C64.835,7.5,62.318,155.628,62.318,155.628l194.183,21.171l19.948-2.186L102.318,155.628z"/>
<path fill="#313D40" d="M206.538,86.42c-5.76,0-11.253-3.337-13.73-8.944c-3.347-7.579,0.084-16.435,7.662-19.781
	c14.534-6.418,34.255-9.952,55.531-9.952c21.029,0,40.588,3.463,55.075,9.752c7.599,3.299,11.085,12.133,7.786,19.732
	c-3.3,7.6-12.132,11.087-19.733,7.786c-10.644-4.621-26.363-7.271-43.128-7.271c-16.945,0-32.769,2.696-43.412,7.396
	C210.618,86.008,208.562,86.42,206.538,86.42z"/>
<ellipse fill="#3A484A" cx="157.67" cy="70" rx="70" ry="60.33"/>
<path fill="#2FC8B4" d="M157.667,100.334c-21.682,0-40-13.891-40-30.333s18.318-30.333,40-30.333s40,13.891,40,30.333
	S179.349,100.334,157.667,100.334z"/>
<path fill="#00AE95" d="M137.667,70c0-13.835,12.97-25.861,30-29.328c-3.209-0.653-6.562-1.005-10-1.005
	c-21.682,0-40,13.891-40,30.333s18.318,30.333,40,30.333c3.438,0,6.791-0.352,10-1.005C150.637,95.861,137.667,83.835,137.667,70z"
	/>
<ellipse fill="#3A484A" cx="354.33" cy="70" rx="70" ry="60.33"/>
<path fill="#2FC8B4" d="M354.334,100.334c21.682,0,40-13.891,40-30.333s-18.318-30.333-40-30.333s-40,13.891-40,30.333
	S332.652,100.334,354.334,100.334z"/>
<path fill="#00AE95" d="M334.334,70c0-13.835,12.97-25.861,30-29.328c-3.209-0.653-6.562-1.005-10-1.005
	c-21.682,0-40,13.891-40,30.333s18.318,30.333,40,30.333c3.438,0,6.791-0.352,10-1.005C347.304,95.861,334.334,83.835,334.334,70z"
	/>
<g>
	<path fill="#EFEDEE" d="M383.881,372.199l-110.819,45.785c0,0,17.932,18.067,28.287,38.348
		c6.355,12.447,21.276,17.841,34.157,12.42C366.456,455.726,409.607,426.864,383.881,372.199z"/>
	<path fill="#EFEDEE" d="M128.12,372.199l110.819,45.785c0,0-17.932,18.067-28.287,38.348
		c-6.355,12.447-21.276,17.841-34.157,12.42C145.545,455.726,102.394,426.864,128.12,372.199z"/>
</g>
<path fill="#D4D2D3" d="M149.166,384.046l87.62,36.2c1.351-1.453,2.153-2.262,2.153-2.262L128.12,372.199
	c-19.193,40.783-0.048,67.202,23.766,83.4C139.379,437.93,134.82,414.53,149.166,384.046z"/>
<path fill="#FBC4AC" d="M440.439,197.971L256.501,176.8L71.562,197.971c-3.334,13.313-5.109,27.197-5.109,41.474
	c0,99.005,84.863,179.264,189.547,179.264s189.547-80.259,189.547-179.264C445.547,225.167,443.773,211.283,440.439,197.971z"/>
<path fill="#E3B098" d="M99.453,239.444c0-14.277,1.774-28.161,5.109-41.474l168.394-19.277l-16.455-1.894L71.562,197.971
	c-3.334,13.313-5.109,27.196-5.109,41.474c0,99.005,84.863,179.264,189.547,179.264c5.561,0,11.061-0.24,16.5-0.684
	C175.545,410.116,99.453,333.19,99.453,239.444z"/>
<g>
	<path fill="#F98084" d="M173.24,294.315h-25.263c-4.143,0-7.5-3.358-7.5-7.5s3.357-7.5,7.5-7.5h25.263
		c4.143,0,7.5,3.358,7.5,7.5S177.383,294.315,173.24,294.315z"/>
	<path fill="#F98084" d="M364.023,294.315H338.76c-4.143,0-7.5-3.358-7.5-7.5s3.357-7.5,7.5-7.5h25.263
		c4.143,0,7.5,3.358,7.5,7.5S368.166,294.315,364.023,294.315z"/>
</g>
<path fill="#EFEDEE" d="M449.683,155.628H62.318c-11.692,0-21.171,9.479-21.171,21.171l0,0
	c0,11.692,9.479,21.171,21.171,21.171h387.365c11.692,0,21.171-9.479,21.171-21.171l0,0
	C470.854,165.107,461.376,155.628,449.683,155.628z"/>
<path fill="#D4D2D3" d="M81.147,176.799L81.147,176.799c0-11.692,9.479-21.171,21.171-21.171h-40
	c-11.693,0-21.171,9.479-21.171,21.171l0,0c0,11.692,9.479,21.171,21.171,21.171h40C90.625,197.971,81.147,188.492,81.147,176.799z"
	/>
<path d="M160.608,267.052c4.142,0,7.5-3.357,7.5-7.5v-18.547c0-4.142-3.358-7.5-7.5-7.5s-7.5,3.358-7.5,7.5v18.547
	C153.108,263.695,156.466,267.052,160.608,267.052z"/>
<path d="M351.392,267.052c4.142,0,7.5-3.357,7.5-7.5v-18.547c0-4.142-3.358-7.5-7.5-7.5s-7.5,3.358-7.5,7.5v18.547
	C343.892,263.695,347.25,267.052,351.392,267.052z"/>
<path d="M256,293.267c8.813,0,17.09-3.686,22.708-10.112c2.726-3.119,2.408-7.856-0.71-10.583s-7.857-2.408-10.583,0.71
	c-2.77,3.168-6.93,4.985-11.416,4.985c-4.486,0-8.646-1.817-11.415-4.984c-2.726-3.12-7.464-3.437-10.583-0.711
	s-3.437,7.464-0.711,10.583C238.909,289.581,247.186,293.267,256,293.267z"/>
<path d="M157.667,107.833c25.748,0,47.5-17.326,47.5-37.833s-21.752-37.833-47.5-37.833s-47.5,17.326-47.5,37.833
	S131.919,107.833,157.667,107.833z M157.667,47.167c17.313,0,32.5,10.67,32.5,22.833s-15.187,22.833-32.5,22.833
	s-32.5-10.67-32.5-22.833S140.354,47.167,157.667,47.167z"/>
<path d="M306.833,70c0,20.508,21.752,37.833,47.5,37.833s47.5-17.326,47.5-37.833s-21.752-37.833-47.5-37.833
	S306.833,49.492,306.833,70z M386.833,70c0,12.164-15.187,22.833-32.5,22.833s-32.5-10.67-32.5-22.833s15.187-22.833,32.5-22.833
	S386.833,57.836,386.833,70z"/>
<path d="M28.938,306.634v68.692c0,12.411,10.097,22.508,22.508,22.508s22.508-10.097,22.508-22.508v-53.03
	c1.719-0.143,3.435-0.358,5.142-0.655c9.313,17.932,21.571,34.249,36.174,48.385c-18.453,10.109-46.556,32.962-58.648,81.544
	c-3.969,15.956-5.981,33.764-5.981,52.931c0,4.142,3.358,7.5,7.5,7.5h395.72c4.142,0,7.5-3.358,7.5-7.5
	c0-19.167-2.013-36.975-5.982-52.932c-12.092-48.582-40.194-71.435-58.647-81.543c14.604-14.136,26.862-30.453,36.174-48.385
	c1.708,0.298,3.423,0.512,5.142,0.655v53.03c0,12.411,10.097,22.508,22.508,22.508s22.508-10.097,22.508-22.508v-68.693
	c15.854-14.095,26.104-36.274,26.104-61.189c0-26.71-11.767-51.175-31.024-65.218c0.135-1.125,0.212-2.266,0.212-3.426
	c0-13.379-9.213-24.646-21.628-27.793c-1.296-12.586-6.298-41.539-25.474-70.844c0.369-2.679,0.581-5.398,0.581-8.163
	c0-37.403-34.766-67.833-77.5-67.833c-10.566,0-20.641,1.866-29.828,5.232C303.813,2.493,280.785,0,256,0
	s-47.813,2.493-68.506,7.398c-9.187-3.366-19.262-5.232-29.827-5.232c-42.734,0-77.5,30.43-77.5,67.833
	c0,2.764,0.212,5.484,0.581,8.162c-19.176,29.305-24.178,58.257-25.473,70.844c-12.415,3.147-21.628,14.414-21.628,27.793
	c0,1.16,0.077,2.302,0.212,3.426C14.6,194.27,2.833,218.734,2.833,245.444C2.833,270.36,13.084,292.539,28.938,306.634z
	 M58.954,375.326c0,4.14-3.368,7.508-7.508,7.508s-7.508-3.368-7.508-7.508v-58.61c4.76,2.271,9.824,3.924,15.016,4.859V375.326z
	 M223.761,423.714c-6.182,7.445-14.035,17.938-19.789,29.207c-4.513,8.84-15.446,12.758-24.569,8.918
	c-17.76-7.475-40.616-20.779-48.646-41.712c-4.14-10.792-3.935-22.879,0.592-36.03c0.019,0.014,0.038,0.028,0.056,0.042
	c15.054,11.684,31.602,21.064,49.247,27.976c0.035,0.014,0.07,0.028,0.105,0.042c13.772,5.386,28.137,9.232,42.746,11.513
	C223.591,423.684,223.675,423.701,223.761,423.714z M71.178,455.191c9.096-36.542,27.537-56.529,43.491-67.349
	c-3.096,13.336-2.408,25.946,2.084,37.657c9.923,25.869,36.383,41.559,56.832,50.165c16.323,6.87,35.694-0.151,43.747-15.922
	c4.009-7.852,9.287-15.423,14.108-21.617V497H116.5v-36.5c0-4.142-3.358-7.5-7.5-7.5s-7.5,3.358-7.5,7.5V497H65.751
	C66.201,481.916,68.021,467.882,71.178,455.191z M246.44,425.985c1.59,0.072,3.184,0.129,4.783,0.166
	c3.229,0.077,6.46,0.075,9.689-0.001c1.549-0.036,3.101-0.089,4.648-0.16V497h-19.12L246.44,425.985L246.44,425.985z
	 M380.65,384.098c4.527,13.151,4.732,25.237,0.592,36.029c-8.03,20.933-30.886,34.237-48.646,41.712
	c-9.153,3.852-20.044-0.058-24.567-8.918c-5.753-11.269-13.607-21.762-19.789-29.208c0.083-0.013,0.165-0.029,0.248-0.042
	c33.461-5.22,65.335-18.754,92.113-39.536C380.617,384.123,380.634,384.111,380.65,384.098z M440.822,455.19
	c3.157,12.692,4.978,26.726,5.427,41.81H410.5v-36.5c0-4.142-3.358-7.5-7.5-7.5s-7.5,3.358-7.5,7.5V497H280.56v-58.876
	c4.822,6.194,10.101,13.767,14.109,21.618c8.028,15.724,27.497,22.762,43.745,15.922c20.45-8.606,46.909-24.296,56.833-50.165
	c4.492-11.711,5.18-24.321,2.084-37.658C413.285,398.662,431.726,418.647,440.822,455.19z M468.063,316.715v58.61
	c0,4.14-3.368,7.508-7.508,7.508s-7.508-3.368-7.508-7.508v-53.751c0.913-0.165,1.821-0.359,2.725-0.567
	C460.009,320.031,464.139,318.587,468.063,316.715z M472.168,194.575c13.727,11.53,21.998,30.322,21.998,50.869
	c0,22.11-9.633,41.543-24.09,52.537c-7.52,5.718-16.673,9.239-26.155,9.503c-0.382,0.011-3.259-0.024-4.315-0.104
	c7.07-17.122,11.362-34.997,12.845-53.378c1.151-14.26,0.603-28.624-1.658-42.752c-0.072-0.453-0.817-5.78-1.01-5.78
	c0.111,0,0.221-0.009,0.332-0.01C458.611,205.348,466.915,201.255,472.168,194.575z M416.833,70c0,32.541-32.859,52.833-62.5,52.833
	c-24.77,0-46.221-12.244-56.327-29.948c-11.61-20.337-5.529-44.857,11.697-59.795c12.24-10.614,28.543-15.924,44.631-15.924
	C388.796,17.167,416.833,40.868,416.833,70z M276.856,71.607c-6.637-0.899-13.696-1.365-20.855-1.365
	c-7.167,0-14.226,0.464-20.856,1.361c0.085-2.962-0.065-5.933-0.428-8.874c-0.058-0.469-0.873-6.083-1.056-6.059
	c7.147-0.95,14.629-1.429,22.341-1.429c7.708,0,15.19,0.48,22.34,1.431c-0.031,0.134-0.051,0.271-0.081,0.405
	C277.199,61.836,276.719,66.734,276.856,71.607z M256,15c16.895,0,32.896,1.202,47.794,3.584
	c-6.7,5.058-12.555,11.268-17.092,18.347c-1.115,1.74-2.14,3.529-3.08,5.359c-8.805-1.352-18.064-2.047-27.622-2.047
	c-9.562,0-18.822,0.695-27.623,2.046c-0.943-1.835-3.618-6.184-3.887-6.586c-4.407-6.573-9.972-12.353-16.284-17.119
	C223.104,16.202,239.105,15,256,15z M157.667,17.167c24.235,0,50.382,12.9,59.416,36.483c1.985,5.182,3.072,10.72,3.081,16.273
	c0,0.026,0.002,0.051,0.002,0.077c0.005,25.179-20.871,44.378-43.935,50.454c-5.867,1.546-12.103,2.379-18.565,2.379
	c-23.322,0-47.826-11.579-58.099-33.396c-2.852-6.064-4.401-12.73-4.401-19.437C95.167,40.868,123.205,17.167,157.667,17.167z
	 M86.742,97.453c11.051,22.042,34.869,37.496,62.852,40.011c10.262,0.922,21.006,0.066,31.094-2.686
	c25.373-6.922,45.185-24.977,51.956-47.601c7.195-1.264,15.167-1.936,23.357-1.936c8.179,0,16.151,0.673,23.359,1.941
	c8.715,29.109,39.022,50.65,74.974,50.65c2.522,0,5.051-0.112,7.564-0.328c0.17-0.015,0.34-0.026,0.51-0.042
	c27.983-2.516,51.8-17.969,62.851-40.011c11.065,20.825,14.912,40.35,16.238,50.675H70.505
	C71.831,137.803,75.677,118.278,86.742,97.453z M62.318,163.128h387.365c7.538,0,13.671,6.133,13.671,13.671
	c0,5.311-3.102,10.275-8.145,12.217c-4.654,1.793-9.88,1.454-14.771,1.454H153.015c-4.142,0-7.5,3.358-7.5,7.5s3.358,7.5,7.5,7.5
	h281.451c0.618,2.904,1.131,5.82,1.619,8.748c1.859,11.151,2.319,22.515,1.736,33.797c-0.004,0.087-0.006,0.175-0.011,0.262
	c-4.412,81.77-69.714,148.625-153.867,160.908c-9.25,1.35-18.594,2.023-27.942,2.023c-9.33,0-18.678-0.659-27.909-2.018
	c-84.168-12.27-149.488-79.133-153.9-160.914c-0.005-0.087-0.006-0.175-0.011-0.262c-0.721-14.26,0.384-28.576,3.354-42.545h45.481
	c4.142,0,7.5-3.358,7.5-7.5s-3.358-7.5-7.5-7.5c0,0-51.395,0-51.453,0c-4.711,0-9.854,0.574-14.414-1.167
	c-5.105-1.949-8.502-7.046-8.502-12.504C48.646,169.261,54.779,163.128,62.318,163.128z M39.832,194.575
	c1.24,1.572,2.667,3.009,4.202,4.292c5.041,4.21,11.612,6.604,18.183,6.604c-2.78,14.297-3.772,28.842-3.014,43.385
	c1.047,20.085,5.515,39.935,13.191,58.525c-5.282,0.398-10.625-0.223-15.691-1.762c-5.365-1.63-10.397-4.294-14.85-7.692
	c-14.417-11.003-24.02-30.409-24.02-52.482C17.833,224.897,26.105,206.105,39.832,194.575z"/>
</svg>
