<?xml version="1.0" encoding="iso-8859-1"?>
<!-- Generator: Adobe Illustrator 19.0.0, SVG Export Plug-In . SVG Version: 6.00 Build 0)  -->
<svg version="1.1" id="Capa_1" xmlns="http://www.w3.org/2000/svg" xmlns:xlink="http://www.w3.org/1999/xlink" x="0px" y="0px"
	 viewBox="0 0 512 512">
<path fill="#00A1E0" d="M314.229,93.064c0-32.159-26.07-58.228-58.228-58.228l0,0c-32.158,0-58.228,26.07-58.228,58.228
	v13.642h116.456V93.064z"/>
<path fill="#008FC7" d="M271.001,36.796c-4.787-1.273-9.812-1.96-15-1.96l0,0c-32.159,0-58.228,26.07-58.228,58.228v13.642
	h30V93.064C227.772,66.093,246.113,43.414,271.001,36.796z"/>
<g>
	<path fill="#3A484A" d="M34.199,23.425c-8.223,0-14.889,6.666-14.889,14.889v30.308c0,8.223,6.666,14.889,14.889,14.889
		s14.889-6.666,14.889-14.889V38.315C49.088,30.091,42.422,23.425,34.199,23.425z"/>
	<path fill="#3A484A" d="M477.802,23.425c8.223,0,14.889,6.666,14.889,14.889v30.308c0,8.223-6.666,14.889-14.889,14.889
		c-8.223,0-14.889-6.666-14.889-14.889V38.315C462.913,30.091,469.579,23.425,477.802,23.425z"/>
</g>
<g>
	<path fill="#00A1E0" d="M65.729,167.599c-32.159,0-58.228,26.07-58.228,58.228l0,0c0,32.159,26.07,58.228,58.228,58.228
		h13.642V167.599H65.729z"/>
	<path fill="#00A1E0" d="M446.272,167.599c32.158,0,58.228,26.07,58.228,58.228l0,0c0,32.159-26.07,58.228-58.228,58.228
		H432.63V167.599H446.272z"/>
</g>
<g>
	<path fill="#D4D2D3" d="M95.02,408.285l-24.111-14.612l-30.888,14.612c-1.787,5.545-2.742,11.46-2.742,17.6v22.54
		L66.15,468.5l28.87-20.075l20.044-17.339L95.02,408.285z"/>
	<path fill="#D4D2D3" d="M416.981,408.285l24.111-14.612l30.888,14.612c1.787,5.545,2.742,11.46,2.742,17.6v22.54
		l-28.87,20.075l-28.87-20.075l-20.044-17.339L416.981,408.285z"/>
</g>
<g>
	<path fill="#9E9C9D" d="M95.02,368.145c-25.743,0-47.564,16.851-54.999,40.14H95.02l17.734-14.612L95.02,368.145z"/>
	<polygon fill="#9E9C9D" points="95.02,448.425 37.279,448.425 37.279,488.576 95.02,488.576 115.064,468.5 	"/>
	<path fill="#9E9C9D" d="M416.981,368.145c25.743,0,47.564,16.851,54.999,40.14h-54.999l-17.734-14.612L416.981,368.145z"/>
	<polygon fill="#9E9C9D" points="416.981,448.425 474.722,448.425 474.722,488.576 416.981,488.576 396.937,468.5 	"/>
</g>
<polygon fill="#BAB8B9" points="256.001,342.411 95.02,368.145 95.02,488.576 179.5,488.576 256.001,468.5 332.502,488.576
	416.981,488.576 416.981,368.145 "/>
<path fill="#00A1E0" d="M332.502,488.576H305.29c0-27.222-22.067-49.289-49.289-49.289s-49.289,22.067-49.289,49.289H179.5
	c0-42.255,34.246-76.501,76.501-76.501S332.502,446.319,332.502,488.576z"/>
<path fill="#008FC7" d="M305.29,488.576h-98.579c0-27.222,22.067-49.289,49.289-49.289S305.29,461.353,305.29,488.576z"/>
<path fill="#D4D2D3" d="M416.977,83.513H95.024c-19.982,0-36.181,16.199-36.181,36.181v212.267
	c0,19.982,16.199,36.181,36.181,36.181h321.953c19.982,0,36.181-16.199,36.181-36.181V119.693
	C453.158,99.711,436.959,83.513,416.977,83.513z"/>
<g>
	<path fill="#EFEDEE" d="M218.007,231.244H204.36c-12.025,0-21.78,9.755-21.78,21.79c0,6.007,2.444,11.46,6.377,15.403
		c3.943,3.933,9.396,6.377,15.403,6.377h13.647l18.997-21.785L218.007,231.244z"/>
	<polygon fill="#EFEDEE" points="293.994,231.244 256.001,231.244 237.004,253.029 256.001,274.813 293.994,274.813
		311.708,253.029 	"/>
</g>
<g>
	<path fill="#00A1E0" d="M329.421,253.034c0,12.025-9.755,21.78-21.78,21.78h-13.647v-43.57h13.647
		c6.007,0,11.46,2.434,15.403,6.377C326.977,241.564,329.421,247.016,329.421,253.034z"/>
	<rect x="218.01" y="231.24" fill="#00A1E0" width="37.994" height="43.57"/>
</g>
<path d="M142.704,188.43c-4.142,0-7.5,3.358-7.5,7.5v22.029c0,4.142,3.358,7.5,7.5,7.5s7.5-3.358,7.5-7.5V195.93
	C150.204,191.788,146.846,188.43,142.704,188.43z"/>
<path d="M369.297,188.43c-4.142,0-7.5,3.358-7.5,7.5v22.029c0,4.142,3.358,7.5,7.5,7.5s7.5-3.358,7.5-7.5V195.93
	C376.797,191.788,373.439,188.43,369.297,188.43z"/>
<path d="M455.413,68.623c0,9.716,6.222,18.002,14.889,21.093v74.938c-3.103-1.216-6.321-2.211-9.645-2.951v-42.01
	c0-24.085-19.595-43.681-43.681-43.681h-97.498C311.892,47.457,286.145,27.336,256,27.336c-30.144,0-55.891,20.121-63.478,48.677
	H95.024c-24.086,0-43.681,19.595-43.681,43.681v42.01c-3.324,0.74-6.542,1.735-9.645,2.951V89.716
	c8.667-3.091,14.889-11.377,14.889-21.093V38.314c0-12.345-10.044-22.389-22.389-22.389S11.81,25.969,11.81,38.314v30.309
	c0,9.716,6.222,18.002,14.889,21.093v83.231C10.417,184.982,0,204.302,0,225.827c0,31.041,21.649,57.51,51.344,64.123v42.01
	c0,13.969,6.599,26.418,16.835,34.419c-16.486,7.406-29.514,21.519-35.293,39.598c-0.001,0.002-0.002,0.004-0.003,0.007
	c-0.001,0.004-0.003,0.009-0.004,0.013c-0.001,0.002-0.002,0.004-0.002,0.006s-0.001,0.004-0.001,0.006
	c-2.054,6.383-3.096,13.07-3.096,19.875v62.69c0,4.142,3.358,7.5,7.5,7.5h437.442c4.142,0,7.5-3.358,7.5-7.5v-62.69
	c0-6.805-1.042-13.491-3.096-19.874c0-0.002-0.001-0.005-0.001-0.007c-0.001-0.002-0.002-0.005-0.002-0.007
	c-0.001-0.004-0.002-0.008-0.004-0.012c0-0.002-0.002-0.004-0.002-0.006c-5.779-18.079-18.808-32.192-35.293-39.598
	c10.236-8.001,16.835-20.451,16.835-34.42v-42.01C490.352,283.337,512,256.868,512,225.827c0-21.525-10.416-40.845-26.698-52.879
	V89.716c8.667-3.091,14.89-11.377,14.89-21.093V38.314c0-12.345-10.044-22.389-22.39-22.389c-12.345,0-22.389,10.044-22.389,22.389
	V68.623z M26.81,38.314c0-4.074,3.314-7.389,7.389-7.389s7.389,3.315,7.389,7.389v30.309c0,4.075-3.314,7.39-7.389,7.39
	s-7.389-3.315-7.389-7.39C26.81,68.623,26.81,38.314,26.81,38.314z M256.001,42.336c21.875,0,40.754,13.722,47.798,33.677h-95.597
	C215.246,56.058,234.125,42.336,256.001,42.336z M15,225.827c0-17.674,9.093-33.426,23.06-42.523
	c0.165-0.099,0.325-0.203,0.481-0.313c3.924-2.493,8.22-4.466,12.803-5.813v97.301C30.129,268.241,15,248.629,15,225.827z
	 M87.52,440.924H44.78v-15.04c0-3.423,0.341-6.804,1.016-10.1H87.52V440.924z M87.52,376.198v24.587H51.468
	C59.056,387.546,72.289,378.464,87.52,376.198z M44.779,455.924h42.74v25.15h-42.74C44.779,481.074,44.779,455.924,44.779,455.924z
	 M187.824,477.972c4.112-26.399,23.911-48.602,49.595-55.852c6.005-1.695,12.341-2.547,18.581-2.547
	c6.708,0,13.47,0.987,19.891,2.935c22.855,6.934,41.427,26.414,47.13,49.626c0.564,2.297,0.992,4.626,1.315,6.969
	c0.09,0.655,0.18,1.311,0.251,1.972h-12.29c-1.963-14.781-10.01-28.534-21.834-37.593c-9.791-7.501-22.125-11.697-34.462-11.697
	c-10.323,0-20.642,2.872-29.455,8.252c-14.437,8.815-24.583,24.135-26.842,41.037h-12.29
	C187.527,480.037,187.664,479.003,187.824,477.972z M214.994,480.567c2.954-15.275,14.938-28.158,29.928-32.27
	c3.598-0.987,7.346-1.511,11.079-1.511c4.271,0,8.542,0.66,12.614,1.95c14.223,4.506,25.684,17.22,28.417,31.936
	c0.024,0.134,0.048,0.269,0.071,0.404h-82.204C214.929,480.905,214.961,480.736,214.994,480.567z M467.222,425.885v15.04h-42.74
	v-25.14h41.725C466.881,419.081,467.222,422.461,467.222,425.885z M467.222,481.076h-42.74v-25.15h42.74V481.076z M460.533,400.785
	h-36.052v-24.587C439.711,378.464,452.945,387.547,460.533,400.785z M445.657,331.96c0,15.814-12.866,28.681-28.681,28.681h-53.565
	c-4.142,0-7.5,3.358-7.5,7.503c0,4.142,3.358,7.5,7.5,7.5h46.07v105.43h-69.812c-1.885-21.358-12.348-41.647-28.471-55.741
	c-15.156-13.249-34.959-20.736-55.099-20.757c-0.034,0-0.066-0.002-0.1-0.002c-0.028,0-0.056,0.002-0.084,0.002
	c-20.229,0.021-40.17,7.593-55.348,20.963c-15.95,14.043-26.327,34.251-28.237,55.536h-69.81v-105.43h230.892
	c4.143,0,7.5-3.358,7.5-7.503c0-4.142-3.357-7.5-7.5-7.5H95.024c-15.814,0-28.681-12.866-28.681-28.681V119.693
	c0-15.814,12.866-28.681,28.681-28.681h321.952c15.814,0,28.681,12.866,28.681,28.681V331.96z M497,225.827
	c0,22.802-15.129,42.414-36.343,48.65v-97.301c3.906,1.148,7.603,2.753,11.04,4.744c1.076,1.509,2.692,2.605,4.57,2.996
	C488.907,194.196,497,209.155,497,225.827z M470.413,38.314c0-4.074,3.315-7.389,7.389-7.389c4.075,0,7.39,3.315,7.39,7.389v30.309
	c0,4.075-3.314,7.39-7.39,7.39c-4.074,0-7.389-3.315-7.389-7.39V38.314z"/>
<path d="M133.933,408.285c-3.899,0-7.06,3.161-7.06,7.06v13.113c0,3.899,3.161,7.06,7.06,7.06s7.06-3.161,7.06-7.06v-13.113
	C140.992,411.445,137.832,408.285,133.933,408.285z"/>
<path d="M162.171,408.285c-3.899,0-7.06,3.161-7.06,7.06v13.113c0,3.899,3.161,7.06,7.06,7.06s7.06-3.161,7.06-7.06v-13.113
	C169.231,411.445,166.07,408.285,162.171,408.285z"/>
<path d="M307.642,223.744h-13.647H256l0,0h-37.993H204.36c-16.145,0-29.279,13.14-29.279,29.29c0,7.809,3.042,15.16,8.581,20.713
	c5.54,5.524,12.89,8.566,20.699,8.566h13.647h0.001h37.99H256h37.994c0.001,0,0.002,0,0.003,0h13.645
	c16.145,0,29.279-13.135,29.279-29.28c0-7.816-3.042-15.171-8.573-20.716C322.819,226.789,315.465,223.744,307.642,223.744z
	 M286.494,267.313H263.5v-28.57h22.994V267.313z M194.268,263.141c-2.701-2.708-4.188-6.297-4.188-10.107
	c0-7.879,6.405-14.29,14.279-14.29h6.147v28.57h-6.147C200.55,267.313,196.96,265.826,194.268,263.141z M225.507,238.744H248.5
	v28.57h-22.993V238.744z M307.642,267.313h-6.147v-28.57h6.147c3.817,0,7.404,1.484,10.092,4.173c2.7,2.707,4.187,6.3,4.187,10.117
	C321.921,260.908,315.515,267.313,307.642,267.313z"/>
<g>
</g>
<g>
</g>
<g>
</g>
<g>
</g>
<g>
</g>
<g>
</g>
<g>
</g>
<g>
</g>
<g>
</g>
<g>
</g>
<g>
</g>
<g>
</g>
<g>
</g>
<g>
</g>
<g>
</g>
</svg>
