<svg version="1.1" id="Save"
                xmlns="http://www.w3.org/2000/svg"
                x="0px" y="0px"
                viewBox="0 0 512 512"
                width="1.78rem" height="1.78rem">
                <polygon fill="#509299"
                  points="512,512 443.153,512 256,466.489 68.847,512 0,512 0,0 115.484,0 256,45.511 396.516,0
                  443.733,0 512,68.271 "/>
                <polygon fill="#B4E5EA"
                  points="115.484,0 115.484,210.489 396.516,210.489 396.516,0 351.004,0 303.502,22.756 256,0 "/>
                <rect x="256" fill="#1B4145" width="95.004" height="164.978"/>
                <polygon fill="#F9F7F7"
                  points="443.153,348.604 443.153,512 68.847,512 68.847,348.604 256,325.848 "/>
                <path fill="#6FC5D6"
                  d="M443.153,326.986v21.618H68.847v-21.618c0-19.479,15.792-35.271,35.271-35.271h303.764
                  C427.361,291.715,443.153,307.507,443.153,326.986z"/>
              </svg>