<?xml version="1.0" encoding="iso-8859-1"?>
<!-- Generator: Adobe Illustrator 19.0.0, SVG Export Plug-In . SVG Version: 6.00 Build 0)  -->
<svg version="1.1" id="Capa_1" xmlns="http://www.w3.org/2000/svg" xmlns:xlink="http://www.w3.org/1999/xlink" x="0px" y="0px"
	 viewBox="0 0 511.999 511.999">
<path fill="#EEECED" d="M353.97,326.783h-30.993l0,0H189.021l0,0h-30.993c0,0-87.329,59.642-74.657,177.717h44.697l7.5-7.899
	l7.5,7.899h86.931l26-21.5l26,21.5h86.931l7.5-7.399l7.5,7.399h44.697C441.298,386.425,353.97,326.783,353.97,326.783z"/>
<polygon fill="#BB3649" points="281.999,504.5 273.746,431.713 238.252,431.713 229.999,504.5 "/>
<path style="fill:#D55C64;" d="M279.073,418.258l-5.503-38.026h-35.041l-5.605,38.026c-1.435,5.172,0.741,10.667,5.327,13.455
	l11.518,7.001c3.827,2.326,8.632,2.326,12.459,0l11.518-7.001C278.333,428.925,280.508,423.429,279.073,418.258z"/>
<g>
	<path fill="#FFFCFD" d="M201.666,360.333l-24.36,22.418l13.535,30.549c4.011,9.053,15.716,11.508,23.027,4.831
		l22.042-20.133L201.666,360.333z"/>
	<path fill="#FFFCFD" d="M310.332,360.333l24.36,22.418L321.156,413.3c-4.011,9.053-15.716,11.508-23.027,4.831
		l-22.042-20.133L310.332,360.333z"/>
</g>
<path fill="#343E40" d="M467.633,65.401c-1.819-9.82-10.405-16.946-20.392-16.838C396.074,49.111,363.112,7.5,255.999,7.5
	c-119.933,0-217.505,93.914-217.505,209.349l29.127,26.003l188.43,29.153l187.306-23.109l20.149-32.047
	C479.384,151.118,472.854,93.579,467.633,65.401z"/>
<path fill="#293234" d="M79.955,235.877c0-117.701,91.085-214.88,207.626-227.077c-9.774-0.831-20.26-1.3-31.582-1.3
	c-119.933,0-217.505,93.914-217.505,209.349l29.127,26.003l24.075,3.725L79.955,235.877z"/>
<path fill="#FBC4AC" d="M445.909,228.77l-0.008,0.006v-0.001l-1.76-0.508c0,0-58.866-14.857-58.866-83.268
	c0,0-54.553,14-129.276,14s-129.276-14-129.276-14c0,68.411-58.866,83.268-58.866,83.268l-1.755,0.678l-6.306,20.642l14.208,20.642
	v-0.001c23.839,74.557,96.294,128.782,181.995,128.782s158.152-54.226,181.99-128.782l19.307-16.378L445.909,228.77z"/>
<g>
	<path fill="#E3B098" d="M445.852,229.49c-1.009,14.082-3.701,27.718-7.865,40.74c2.01,0.292,4.063,0.452,6.154,0.452
		c23.424,0,42.414-18.989,42.414-42.414c0-21.905-16.607-39.928-37.917-42.174c-0.245,21.275-2.729,42.677-2.729,42.677
		L445.852,229.49z"/>
	<path fill="#E3B098" d="M66.089,228.77c0,0-2.483-21.401-2.729-42.677c-21.311,2.246-37.917,20.269-37.917,42.174
		c0,23.424,18.989,42.414,42.414,42.414c2.088,0,4.139-0.159,6.146-0.451v-0.001c22.228,69.517,86.725,121.35,164.815,128.039
		c-66.946-30.963-118.466-87.667-140.536-156.69v0.001l0,0c-2.614-8.173-4.816-16.519-6.583-25.014
		c-12.634,8.872-23.842,11.702-23.842,11.702l-1.753,0.677L66.089,228.77z"/>
</g>
<path d="M476.445,190.156c8.739-55.542,2.912-102.646-1.438-126.121c-2.493-13.458-14.189-23.099-27.847-22.973
	c-19.646,0.212-36.418-6.251-57.655-14.432C358.706,14.767,320.375,0,255.999,0c-48.382,0-94.525,14.649-133.439,42.364
	c-3.374,2.403-4.161,7.086-1.758,10.46s7.086,4.16,10.46,1.759C167.62,28.688,210.754,15,255.999,15
	c61.586,0,98.474,14.21,128.114,25.628c21.835,8.412,40.702,15.674,63.208,15.435c6.356-0.108,11.774,4.433,12.937,10.705
	c4.017,21.675,9.349,64.353,2.263,115.07c0.166-1.28-11.939-3.081-13.098-3.203c-4.342-0.457-8.235,3.013-8.286,7.373
	c-0.053,4.576-0.192,9.158-0.439,13.728c-0.361,7.233-0.876,13.882-1.322,18.903c-3.801-1.603-8.895-4.135-14.334-7.907
	c-0.021-0.014-0.038-0.031-0.059-0.045c-2.779-1.919-5.417-4.044-7.918-6.313c-16.57-15.041-24.289-37.329-24.291-59.366
	c0-5.506-5.456-8.209-10.268-7.049c-41.255,9.944-84.137,13.541-126.507,13.541c-72.79,0-126.862-13.624-127.412-13.765
	c-4.676-1.193-9.364,2.439-9.364,7.265c0,4.235-0.248,8.492-0.782,12.693c-3.554,27.903-18.57,44.076-31.426,52.993
	c-4.4,3.052-9.291,5.878-14.389,7.995c-0.45-5.061-0.971-11.785-1.334-19.096c-0.224-4.522-0.431-9.049-0.431-13.578
	c-0.034-2.907-1.82-5.611-4.48-6.78c-3.434-1.509-8.209-0.055-11.627,0.873c-1.82,0.49-3.788,1.133-5.599,1.86
	c7.519-41.087,28.343-79.292,59.629-108.894c3.009-2.847,3.14-7.594,0.293-10.603c-2.847-3.01-7.593-3.141-10.603-0.294
	c-37.095,35.099-60.493,81.504-66.115,130.948c-8.955,9.047-14.415,21.49-14.415,35.151c0,27.522,22.391,49.913,49.914,49.913
	c0.296,0,0.596-0.011,0.894-0.017c10.16,28.577,27.414,54.59,50.698,75.895c-25.094,31.206-51.027,81.427-43.535,151.24
	c0.409,3.811,3.625,6.7,7.457,6.7h345.257c3.833,0,7.048-2.89,7.457-6.7c7.492-69.816-18.443-120.037-43.538-151.244
	c23.274-21.296,40.536-47.309,50.698-75.891c0.299,0.006,0.599,0.017,0.896,0.017c27.522,0,49.914-22.391,49.914-49.913
	C494.055,213.049,487.28,199.34,476.445,190.156z M32.943,228.269c0-13.847,8.599-26.79,21.344-32.175
	c0.143-0.061,1.807-0.633,1.804-0.708c0.631,16.864,1.732,34.117,4.457,50.788c0.01,0.063,0.019,0.126,0.029,0.188
	c0.913,5.606,2.089,11.148,3.512,16.617C46.603,261.094,32.943,246.246,32.943,228.269z M253.665,432.305
	c0,0-11.518-7.001-11.519-7.002c-1.709-1.039-2.529-3.112-1.994-5.04c0.083-0.299,2.152-14.206,2.152-14.206
	c4.557,0.304,9.128,0.454,13.695,0.454c4.579,0,9.161-0.153,13.731-0.456c0,0,2.031,13.902,2.116,14.208
	c0.535,1.928-0.285,4-1.997,5.041l-11.518,7.002C256.893,433.181,255.105,433.182,253.665,432.305z M194.635,397.197
	c8.012,2.503,16.191,4.516,24.451,6.01c0,0-10.245,9.357-10.277,9.386c-3.486,3.184-9.208,1.969-11.112-2.33l-6.237-14.078
	C192.515,396.533,193.576,396.865,194.635,397.197z M295.014,402.804c8.634-1.657,17.178-3.866,25.526-6.625
	c0,0-6.229,14.059-6.24,14.083c-1.908,4.306-7.632,5.508-11.112,2.33l-10.278-9.387
	C293.613,403.079,294.311,402.939,295.014,402.804z M130.889,363.766c12.575,9.863,26.255,18.121,40.733,24.673
	c0,0,12.351,27.875,12.362,27.9c5.982,13.5,24.019,17.307,34.942,7.33l6.424-5.867c-1.183,6.199,0.749,12.559,4.997,17.06
	L223.301,497h-80.234v-61.226c0-4.143-3.358-7.5-7.5-7.5s-7.5,3.357-7.5,7.5V497H90.213
	C85.564,435.933,108.53,391.697,130.889,363.766z M238.396,497l5.985-52.783l1.49,0.905c6.133,3.726,14.121,3.729,20.251,0.001
	l1.492-0.907L273.6,497H238.396z M421.785,497H383.93v-61.226c0-4.143-3.358-7.5-7.5-7.5s-7.5,3.357-7.5,7.5V497h-80.233
	l-7.046-62.139c4.247-4.501,6.179-10.86,4.997-17.06c0,0,6.42,5.864,6.424,5.867c10.937,9.99,28.97,6.15,34.942-7.33l12.363-27.903
	c14.478-6.552,28.155-14.813,40.729-24.675C403.466,391.691,426.434,435.93,421.785,497z M381.122,344.184
	c-27.746,24.901-63.025,40.769-99.937,45.663c-8.343,1.106-16.771,1.663-25.187,1.663c-8.4,0-16.869-0.57-25.196-1.664
	c-36.976-4.86-72.442-20.899-100.18-45.885c-23.338-21.022-40.216-47.114-49.415-75.781c-0.022-0.078-0.036-0.156-0.061-0.234
	c-3.455-10.81-5.88-22.358-7.062-33.796c4.74-1.694,12.767-5.106,21.439-11.113c0.013-0.009,0.026-0.015,0.039-0.024
	c0.028-0.019,0.056-0.04,0.084-0.06c22.701-15.931,36.073-40.875,38.221-68.621c18.582,3.958,64.119,12.169,122.13,12.169
	s103.548-8.21,122.13-12.169c2.236,28.88,14.722,47.982,27.912,60.299c9.094,8.542,20.107,15.311,31.86,19.515
	c-0.048,0.464-0.091,0.928-0.142,1.391c-1.228,10.997-3.545,21.868-6.915,32.409c-0.022,0.071-0.035,0.143-0.056,0.213
	C421.555,296.942,404.585,323.127,381.122,344.184z M447.9,262.981c1.044-4.013,1.955-8.066,2.726-12.155
	c0.02-0.103,0.037-0.205,0.057-0.308c3.38-17.971,4.54-36.868,5.224-55.122c2.872,1.028,5.61,2.434,8.129,4.185
	c0.059,0.041,0.123,0.072,0.183,0.111c9.025,6.335,14.836,16.799,14.836,28.577C479.055,246.25,465.391,261.101,447.9,262.981z"/>
<path d="M278.904,260.165c-3.326-2.468-8.024-1.772-10.492,1.555c-2.961,3.991-7.484,6.28-12.409,6.28
	c-4.925,0-9.448-2.289-12.409-6.28c-2.468-3.327-7.165-4.025-10.492-1.555c-3.327,2.468-4.023,7.165-1.555,10.492
	C237.28,278.386,246.423,283,256.003,283s18.723-4.614,24.456-12.343C282.927,267.33,282.23,262.633,278.904,260.165z"/>
<path fill="#FF8087" d="M160.98,268h-29.563c-4.142,0-7.5,3.358-7.5,7.5s3.358,7.5,7.5,7.5h29.563c4.142,0,7.5-3.358,7.5-7.5
	S165.122,268,160.98,268z"/>
<path d="M146.198,252.598c4.142,0,7.5-3.358,7.5-7.5v-21.993c0-4.142-3.358-7.5-7.5-7.5s-7.5,3.358-7.5,7.5v21.993
	C138.698,249.24,142.056,252.598,146.198,252.598z"/>
<path d="M365.807,252.598c4.142,0,7.5-3.358,7.5-7.5v-21.993c0-4.142-3.358-7.5-7.5-7.5s-7.5,3.358-7.5,7.5v21.993
	C358.307,249.24,361.664,252.598,365.807,252.598z"/>
<path fill="#FF8087" d="M380.582,268h-29.563c-4.142,0-7.5,3.358-7.5,7.5s3.358,7.5,7.5,7.5h29.563
	c4.142,0,7.5-3.358,7.5-7.5S384.724,268,380.582,268z"/>
</svg>
